<?xml version="1.0" standalone="no"?>
<!DOCTYPE svg PUBLIC "-//W3C//DTD SVG 20010904//EN"
 "http://www.w3.org/TR/2001/REC-SVG-20010904/DTD/svg10.dtd">
<svg version="1.0" xmlns="http://www.w3.org/2000/svg"
 width="300.000000pt" height="300.000000pt" viewBox="0 0 300.000000 300.000000"
 preserveAspectRatio="xMidYMid meet">

<g transform="translate(0.000000,300.000000) scale(0.100000,-0.100000)"
fill="#000000" stroke="none">
<path d="M1075 1510 c0 -212 1 -298 2 -193 2 106 2 280 0 385 -1 106 -2 20 -2
-192z"/>
<path d="M226 1768 c-15 -133 -1 -222 48 -283 27 -33 48 -27 26 8 -44 68 -50
91 -50 184 0 50 3 94 8 97 4 2 29 -11 55 -30 45 -33 58 -56 37 -69 -5 -3 -10
-10 -10 -16 0 -18 27 -8 54 20 49 51 119 75 216 75 70 0 95 -5 140 -25 30 -14
66 -38 80 -52 37 -39 70 -35 34 4 -14 16 -12 20 39 58 29 23 57 41 60 41 4 0
7 -45 7 -100 0 -101 -8 -129 -52 -192 -24 -33 4 -33 32 0 42 50 54 107 47 223
-3 55 -8 103 -11 107 -4 3 -40 -18 -82 -47 l-75 -52 -57 28 c-51 25 -67 28
-162 28 -95 0 -111 -3 -162 -28 l-57 -28 -69 51 c-38 27 -73 50 -79 50 -6 0
-13 -24 -17 -52z"/>
<path d="M1351 1718 c-1 -13 -13 -18 -53 -21 l-53 -3 53 -2 c44 -2 52 -5 52
-21 0 -17 -8 -21 -52 -24 l-53 -3 52 -2 53 -2 -3 -50 c-2 -33 0 -47 6 -41 6 6
10 28 9 50 l-2 40 43 4 42 4 -42 1 c-35 2 -43 6 -43 21 0 16 8 21 48 24 l47 3
-47 2 c-35 2 -48 6 -51 20 -4 15 -5 15 -6 0z"/>
<path d="M1521 1716 c7 -7 139 -10 146 -3 3 4 -29 7 -72 7 -43 0 -76 -2 -74
-4z"/>
<path d="M1839 1701 c13 -8 13 -17 -1 -68 -13 -45 -14 -54 -3 -39 8 10 17 38
21 62 4 28 12 44 23 47 9 3 0 5 -19 6 -25 0 -31 -2 -21 -8z"/>
<path d="M1619 1683 c-13 -16 -12 -17 4 -4 9 7 17 15 17 17 0 8 -8 3 -21 -13z"/>
<path d="M1778 1673 c-14 -16 -29 -38 -33 -51 -8 -28 18 -72 43 -71 13 0 13 2
-4 9 -12 4 -24 16 -28 25 -8 23 17 79 45 99 13 9 19 16 13 16 -6 0 -22 -12
-36 -27z"/>
<path d="M1924 1679 c43 -34 34 -99 -19 -127 -11 -6 -15 -12 -9 -12 6 0 23 9
38 21 20 16 26 29 26 60 0 39 -26 79 -51 79 -7 0 0 -9 15 -21z"/>
<path d="M1565 1644 c-20 -17 -23 -22 -8 -15 12 6 37 12 55 12 30 2 31 2 5 6
-15 2 -25 9 -22 14 9 14 2 10 -30 -17z"/>
<path d="M1664 1624 c23 -22 20 -60 -6 -78 -12 -9 -17 -16 -11 -16 21 0 43 31
43 59 0 27 -16 51 -33 51 -5 0 -1 -7 7 -16z"/>
<path d="M1268 1589 c-37 -21 -8 -60 44 -58 25 1 19 4 -24 13 -16 4 -28 13
-28 21 0 8 12 17 28 21 44 9 49 12 22 13 -14 0 -33 -4 -42 -10z"/>
<path d="M1553 1583 c-15 -5 -17 -39 -4 -47 5 -4 7 3 4 14 -4 14 1 22 18 29
13 5 17 10 9 10 -8 -1 -21 -3 -27 -6z"/>
<path d="M1609 1563 c15 -30 15 -31 -16 -36 -26 -4 -26 -4 5 -6 36 -1 41 13
16 45 -15 18 -15 18 -5 -3z"/>
<path d="M424 1545 c-8 -21 2 -45 19 -45 8 0 20 7 27 15 10 12 10 18 0 30 -7
8 -19 15 -27 15 -7 0 -16 -7 -19 -15z"/>
<path d="M754 1545 c-8 -21 2 -45 19 -45 8 0 20 7 27 15 10 12 10 18 0 30 -7
8 -19 15 -27 15 -7 0 -16 -7 -19 -15z"/>
<path d="M570 1418 c-25 -12 -25 -12 10 -15 52 -5 80 -12 80 -21 0 -5 -13 -7
-28 -4 -72 10 -162 -39 -162 -88 0 -37 53 -100 84 -100 19 1 18 3 -10 28 -66
56 -65 100 2 122 46 16 146 7 179 -14 33 -22 32 -60 -2 -92 -14 -13 -23 -27
-19 -31 14 -14 61 23 80 61 28 58 10 84 -77 115 -84 30 -77 50 9 28 64 -17 84
-14 38 4 -43 17 -155 21 -184 7z"/>
<path d="M1450 1400 c-14 -11 -30 -20 -36 -20 -5 0 -19 -7 -30 -16 -19 -15
-19 -15 2 -5 30 14 136 16 162 2 12 -6 22 -8 22 -4 0 4 -18 16 -40 25 -22 9
-38 12 -35 7 4 -5 -9 -9 -27 -8 -31 0 -32 1 -10 11 12 6 22 15 22 20 0 11 -1
10 -30 -12z"/>
<path d="M1642 1333 l2 -58 3 52 4 52 92 4 92 3 -97 2 -98 2 2 -57z"/>
<path d="M1705 1359 l-40 -6 38 -2 c46 -1 49 -18 5 -24 l-33 -4 33 -1 c17 -1
32 -6 32 -11 0 -6 -15 -12 -32 -14 l-33 -4 33 -1 c17 -1 32 -6 32 -11 0 -6
-15 -12 -32 -14 l-33 -4 33 -1 c47 -3 39 -20 -10 -25 l-43 -4 42 -1 c30 -2 43
-7 46 -19 4 -16 5 -16 6 -1 1 12 12 18 44 21 l42 4 -42 1 c-51 2 -58 22 -8 22
33 0 35 2 35 35 0 33 -2 35 -35 35 -50 0 -44 18 8 22 l42 3 -45 5 c-25 3 -63
2 -85 -1z m105 -49 c0 -5 -13 -10 -30 -10 -16 0 -30 5 -30 10 0 6 14 10 30 10
17 0 30 -4 30 -10z m0 -30 c0 -5 -13 -10 -30 -10 -16 0 -30 5 -30 10 0 6 14
10 30 10 17 0 30 -4 30 -10z"/>
<path d="M1473 1343 c37 -2 67 -8 67 -13 0 -5 -30 -11 -67 -13 l-68 -3 68 -2
c87 -3 87 -20 0 -24 -44 -2 -67 -7 -69 -16 -1 -7 0 -8 3 -2 2 5 36 10 74 10
l69 0 0 35 0 35 -72 -2 -73 -2 68 -3z"/>
<path d="M534 1295 c-3 -8 -3 -19 1 -25 10 -16 35 7 28 26 -7 18 -22 18 -29
-1z"/>
<path d="M698 1304 c-11 -10 3 -34 19 -34 8 0 13 7 11 17 -3 18 -20 27 -30 17z"/>
<path d="M1420 1233 c0 -28 0 -28 70 -28 70 0 70 0 70 28 0 27 0 27 -70 27
-70 0 -70 0 -70 -27z m130 2 c0 -12 -13 -15 -60 -15 -47 0 -60 3 -60 15 0 12
13 15 60 15 47 0 60 -3 60 -15z"/>
<path d="M1386 1233 c-6 -14 -5 -15 5 -6 7 7 10 15 7 18 -3 3 -9 -2 -12 -12z"/>
</g>
</svg>
