<?xml version="1.0" standalone="no"?>
<!DOCTYPE svg PUBLIC "-//W3C//DTD SVG 20010904//EN"
 "http://www.w3.org/TR/2001/REC-SVG-20010904/DTD/svg10.dtd">
<svg version="1.0" xmlns="http://www.w3.org/2000/svg"
 width="8000.000000pt" height="1500.000000pt" viewBox="0 0 8000.000000 1500.000000"
 preserveAspectRatio="xMidYMid meet">

<g transform="translate(0.000000,1500.000000) scale(0.100000,-0.100000)"
fill="#000000" stroke="none">
<path d="M59190 13473 c-106 -242 -241 -489 -383 -703 -184 -275 -360 -485
-666 -791 -363 -363 -768 -706 -1298 -1101 -247 -185 -957 -651 -1370 -901
-433 -263 -1065 -555 -1770 -821 l-73 -28 0 -120 0 -120 93 -123 92 -124 132
0 133 -1 202 79 c426 165 741 308 1323 599 l360 181 7 -57 c3 -31 11 -158 17
-282 35 -723 20 -1732 -34 -2405 -26 -320 -96 -916 -135 -1153 -95 -578 -278
-1200 -483 -1647 -108 -236 -322 -566 -556 -858 -124 -154 -389 -429 -525
-542 l-95 -80 -1 -122 0 -123 67 -45 68 -45 131 0 132 0 179 119 c325 218 532
396 760 656 257 293 462 593 623 914 211 422 365 879 475 1406 l34 160 3
-1662 3 -1662 21 -28 c43 -59 69 -64 284 -60 215 4 245 10 398 83 60 29 79 44
103 82 29 46 29 47 29 199 l0 153 3053 0 c2044 0 3064 3 3089 10 30 9 41 19
59 58 21 42 24 65 27 210 5 182 -1 208 -51 238 -18 10 -81 52 -140 93 l-107
75 0 670 1 671 72 47 c93 60 176 131 221 188 47 59 60 120 54 257 -5 129 -12
144 -115 244 -85 83 -188 160 -368 278 l-140 91 -127 0 -127 0 -166 -195 -166
-195 -2466 0 -2467 0 -361 195 -362 195 -106 0 c-123 0 -114 -11 -96 117 6 43
16 137 23 208 l11 130 2713 3 2712 2 0 -143 c0 -165 4 -175 77 -204 69 -26
368 -26 461 0 141 40 223 93 265 171 l22 41 3 1367 2 1367 78 54 c102 71 189
152 224 206 27 44 28 48 28 188 0 167 -3 176 -89 266 -74 79 -184 164 -363
281 l-146 96 -134 0 -133 0 -168 -185 -167 -185 -2615 0 -2615 0 -228 146
c-125 80 -233 151 -240 158 -10 10 17 31 145 108 331 199 755 471 937 601 37
26 74 51 82 54 10 3 45 -59 120 -216 l107 -221 171 0 c94 1 259 6 366 11 108
6 887 14 1750 17 l1555 7 31 22 c54 38 64 82 64 269 0 139 -3 171 -17 195 -10
17 -189 158 -408 324 l-391 295 -130 0 -129 0 -255 -255 -255 -255 -695 0
c-656 0 -833 5 -1095 31 -149 14 -378 49 -388 58 -4 4 34 40 86 79 293 219
954 794 1127 978 140 149 329 387 484 609 43 61 80 109 82 108 3 -1 78 -89
166 -195 234 -281 366 -427 608 -668 394 -394 782 -727 1195 -1025 61 -43 160
-122 220 -175 642 -563 1455 -1042 2357 -1390 l157 -60 123 0 124 0 42 64
c131 199 360 305 702 325 l105 6 6 30 c9 39 9 321 0 359 -6 29 -8 29 -236 86
-873 217 -1609 513 -2555 1028 -538 293 -1313 840 -1775 1254 -144 128 -554
541 -594 596 l-22 31 36 15 c111 47 134 93 135 264 0 178 -12 199 -141 250
-198 79 -444 149 -727 207 -147 30 -193 35 -306 35 l-133 0 -43 -97z m2950
-5013 l0 -380 -2650 0 -2650 0 0 380 0 380 2650 0 2650 0 0 -380z m0 -1375 l0
-395 -2680 0 c-1474 0 -2680 1 -2680 3 0 1 7 83 15 182 8 99 17 266 20 370 4
105 8 200 11 213 l4 22 2655 0 2655 0 0 -395z m430 -3205 l0 -780 -2550 0
-2550 0 0 780 0 780 2550 0 2550 0 0 -780z"/>
<path d="M71398 13405 l-88 -65 0 -117 0 -118 70 -89 c138 -174 255 -367 375
-621 58 -120 115 -263 115 -286 0 -5 -750 -9 -1978 -9 l-1979 0 -333 205 -334
205 -128 0 -127 0 -7 -35 c-3 -19 -1 -166 5 -327 27 -688 33 -1051 38 -2458 7
-1783 -2 -2297 -57 -3345 -62 -1180 -130 -1836 -255 -2460 -87 -433 -367
-1310 -534 -1669 -41 -89 -41 -89 -41 -211 l0 -121 73 -42 73 -42 122 0 122 0
68 92 c298 403 497 791 677 1318 182 534 329 1214 409 1900 69 585 93 902 158
2130 7 140 12 924 15 2248 l4 2032 4862 0 c5187 1 4905 -2 4959 47 47 41 58
88 58 246 0 180 -8 201 -107 280 -94 74 -523 397 -725 545 l-167 122 -133 0
-133 -1 -280 -329 -280 -329 -1627 0 -1628 -1 0 214 c0 249 -11 305 -85 416
-56 85 -261 298 -378 395 -51 41 -130 107 -177 146 -47 39 -128 99 -180 135
l-95 64 -130 0 -130 0 -87 -65z"/>
<path d="M1467 13415 c-15 -7 -27 -11 -27 -8 0 3 -17 -10 -38 -28 -22 -19 -49
-42 -60 -51 -12 -10 -22 -28 -22 -40 0 -13 -14 -36 -30 -52 -17 -16 -30 -34
-30 -39 0 -5 -9 -21 -20 -37 -11 -15 -17 -30 -13 -33 3 -4 1 -13 -5 -20 -7 -8
-9 -17 -6 -20 8 -8 12 -117 4 -112 -3 2 -5 -21 -5 -50 0 -29 3 -51 8 -48 9 5
10 -11 1 -20 -9 -9 -10 -96 -1 -90 4 2 7 -1 7 -6 0 -6 -5 -11 -11 -11 -5 0 -7
-5 -4 -10 4 -6 12 -7 18 -3 8 4 7 1 -1 -9 -17 -21 -25 -91 -9 -81 6 3 7 1 3
-5 -13 -21 -15 -112 -2 -105 7 4 6 1 -1 -8 -12 -14 -10 -80 2 -99 3 -5 1 -11
-4 -14 -5 -3 -8 -14 -6 -24 12 -58 14 -82 7 -78 -5 3 -9 -2 -9 -10 0 -9 6 -13
15 -9 12 4 12 2 4 -8 -7 -7 -14 -24 -16 -38 -3 -13 -5 -26 -6 -29 -1 -3 -1
-18 0 -33 1 -15 -4 -35 -12 -44 -11 -14 -11 -16 1 -8 11 6 13 4 7 -11 -18 -43
-25 -176 -13 -254 2 -14 -1 -33 -6 -43 -5 -11 -5 -23 1 -30 12 -15 13 -100 1
-107 -5 -3 -10 -17 -11 -30 -2 -14 -7 -28 -13 -32 -6 -5 -5 -8 3 -8 7 0 10 -4
7 -10 -3 -5 -8 -20 -10 -32 -3 -12 -14 -41 -25 -65 -23 -50 -24 -57 -7 -47 9
6 9 4 -1 -8 -7 -9 -12 -31 -10 -50 1 -19 -1 -39 -5 -45 -4 -6 -3 -14 2 -18 6
-3 7 -15 2 -28 -8 -25 -7 -104 2 -113 3 -3 2 -17 -4 -31 -6 -17 -6 -22 2 -17
7 4 7 -1 -1 -16 -6 -12 -13 -36 -14 -53 -1 -18 -5 -38 -10 -46 -7 -11 -6 -12
5 -6 11 7 12 6 3 -6 -6 -8 -10 -22 -9 -31 2 -10 -1 -16 -7 -15 -6 1 -12 -6
-13 -16 -2 -10 -11 -27 -19 -36 -9 -10 -14 -20 -11 -23 3 -3 1 -17 -5 -32 -7
-20 -7 -25 1 -20 8 4 8 0 0 -14 -14 -26 -23 -75 -22 -125 1 -28 -3 -36 -12
-31 -8 5 -7 2 2 -9 7 -9 13 -36 12 -59 0 -24 -1 -52 -1 -63 0 -11 0 -38 -1
-60 0 -22 -2 -70 -2 -107 -1 -36 2 -61 6 -55 5 7 5 1 1 -13 -4 -14 -7 -58 -6
-99 1 -51 -2 -77 -11 -83 -9 -6 -9 -8 1 -8 7 0 10 -4 7 -10 -3 -5 -2 -10 2
-10 5 0 9 -9 9 -20 0 -11 -3 -20 -6 -20 -9 0 -6 -57 5 -100 5 -19 9 -46 9 -60
1 -14 11 -44 24 -68 13 -23 20 -48 16 -54 -4 -6 -3 -8 3 -5 6 4 13 0 17 -8 3
-8 1 -17 -5 -20 -5 -4 -7 -11 -3 -16 3 -6 7 -20 9 -32 2 -12 7 -35 10 -52 4
-16 8 -65 9 -108 0 -43 6 -81 11 -85 6 -4 10 -16 10 -27 -1 -11 4 -23 10 -27
6 -5 5 -8 -4 -8 -11 0 -11 -3 -1 -15 7 -8 10 -22 6 -30 -3 -9 -2 -13 4 -10 6
3 10 -1 10 -9 0 -8 5 -27 11 -43 15 -37 18 -63 7 -69 -5 -3 -3 -13 4 -21 8
-10 12 -60 13 -163 0 -87 4 -146 9 -142 5 3 6 -2 3 -12 -4 -9 0 -28 9 -42 9
-13 13 -24 9 -24 -4 0 -2 -7 5 -15 7 -8 9 -15 4 -15 -5 0 -4 -4 1 -8 6 -4 18
-20 28 -35 10 -15 22 -25 28 -22 5 4 9 3 8 -2 -3 -19 2 -34 10 -29 5 3 12 -1
15 -10 3 -8 2 -12 -3 -9 -5 3 -3 -7 5 -23 7 -16 15 -43 17 -60 2 -17 10 -38
17 -47 19 -23 21 -46 7 -64 -9 -12 -9 -13 1 -7 8 5 11 1 8 -16 -2 -13 1 -31 6
-42 7 -13 7 -16 -1 -12 -11 7 -5 -20 9 -39 19 -25 79 -143 75 -147 -3 -2 14
-23 36 -47 28 -29 39 -48 36 -62 -3 -10 -1 -22 4 -25 5 -3 6 -11 2 -17 -9 -16
-11 -47 -2 -42 5 4 20 -31 18 -44 0 -2 3 -7 8 -10 13 -10 53 -69 53 -79 0 -6
27 -37 61 -70 55 -56 61 -65 65 -112 4 -54 18 -90 35 -90 6 0 7 -5 3 -12 -4
-7 -3 -8 4 -4 12 7 77 -75 111 -143 12 -23 25 -40 29 -37 3 4 19 -14 34 -39
17 -28 33 -43 40 -39 6 4 8 3 4 -4 -3 -6 -2 -13 4 -17 6 -4 8 -11 5 -16 -4 -5
-1 -9 5 -9 6 0 8 -5 5 -10 -4 -6 -3 -9 2 -8 4 2 18 -6 29 -17 12 -11 33 -29
46 -40 13 -11 27 -28 31 -38 4 -11 12 -15 18 -11 7 4 9 3 5 -4 -3 -6 1 -18 10
-26 8 -9 13 -16 9 -16 -4 0 7 -14 24 -31 17 -17 31 -35 31 -40 0 -5 6 -9 13
-9 11 0 49 -63 49 -80 0 -3 4 -13 10 -24 6 -10 6 -16 1 -13 -5 4 -10 0 -10 -8
0 -8 4 -12 8 -9 4 2 17 -10 29 -27 15 -20 28 -28 38 -24 9 3 13 3 10 -1 -11
-11 15 -31 34 -26 10 2 18 0 18 -6 0 -8 15 -7 44 2 25 8 47 11 50 8 4 -3 6 0
6 6 0 7 3 11 8 10 12 -2 47 15 58 30 6 8 15 12 21 9 10 -6 12 1 16 47 1 17 5
22 14 15 8 -8 10 -4 6 12 -4 14 -2 20 4 16 6 -4 8 4 6 21 -4 21 -2 24 6 12 14
-19 14 -5 1 21 -6 10 -7 19 -2 19 13 0 7 139 -6 152 -7 7 -12 18 -12 26 0 7
-4 10 -10 7 -5 -3 -24 14 -42 40 -17 25 -36 45 -41 45 -4 0 -5 5 -2 10 3 6 1
10 -5 10 -6 0 -10 3 -8 8 2 4 -18 30 -45 57 -28 28 -47 43 -43 35 4 -8 -1 -4
-11 10 -10 13 -26 33 -35 42 -10 10 -16 18 -13 18 2 0 -13 18 -34 39 -22 22
-36 42 -33 45 3 3 -1 6 -10 6 -16 0 -61 44 -53 52 3 3 -2 11 -12 19 -15 12
-16 12 -8 -1 4 -8 4 -12 0 -7 -5 4 -10 17 -12 30 -2 12 -9 26 -15 32 -8 7 -9
6 -3 -4 6 -10 4 -12 -4 -7 -7 5 -10 15 -6 24 3 9 3 13 -1 10 -9 -9 -33 15 -26
26 3 5 0 6 -7 2 -6 -4 -14 0 -17 8 -3 9 -10 14 -14 11 -12 -7 -22 24 -27 85
-3 30 -9 60 -14 66 -5 6 -5 15 -1 19 4 5 1 5 -5 1 -13 -7 -103 78 -103 97 0 5
-21 38 -47 75 -26 36 -42 62 -34 58 9 -6 8 1 -3 23 -9 17 -16 33 -16 36 0 3 0
6 -1 8 0 1 -2 10 -4 19 -2 10 -22 37 -44 60 -22 24 -41 49 -41 56 0 7 -5 10
-12 6 -7 -4 -8 -3 -4 5 4 6 2 19 -6 28 -11 14 -11 16 0 9 11 -7 12 -4 3 13 -7
12 -9 26 -6 31 4 6 0 13 -8 16 -13 5 -17 17 -18 61 -1 13 -6 20 -11 17 -6 -4
-7 0 -1 12 19 38 3 141 -20 127 -5 -3 -7 -2 -4 4 4 5 -7 28 -23 50 -16 22 -27
42 -24 45 7 8 -28 78 -37 73 -4 -3 -15 7 -24 21 -11 18 -13 24 -4 19 8 -5 5 2
-6 15 -11 13 -14 20 -6 15 10 -6 12 -4 6 5 -10 17 -15 47 -20 138 -2 41 -6 76
-9 80 -3 3 -1 11 5 19 6 7 7 13 2 13 -5 0 -8 15 -7 32 1 18 -2 38 -7 44 -6 7
-4 16 6 24 8 7 12 16 9 21 -3 5 -6 36 -6 69 -1 32 -4 57 -8 55 -4 -2 -6 7 -4
20 1 14 -2 27 -7 31 -5 3 -9 10 -9 15 0 6 5 7 11 3 6 -3 -1 13 -16 36 -15 23
-21 39 -13 35 7 -3 5 0 -4 8 -10 8 -18 21 -18 29 0 8 -4 18 -10 24 -10 10 -11
22 -11 119 0 33 -1 77 -2 98 -1 21 0 40 3 42 5 3 5 264 -1 337 -1 21 -6 35
-11 32 -4 -3 -4 6 2 20 6 17 6 27 -1 32 -6 4 -5 11 3 22 10 12 10 14 1 8 -7
-4 -13 -2 -13 3 0 6 6 11 13 11 8 0 8 3 -2 9 -11 7 -12 13 -4 23 6 7 9 22 7
32 -1 11 0 24 3 29 3 5 7 41 9 81 2 39 5 86 7 103 3 18 2 31 -2 29 -7 -5 -8
242 -1 264 3 8 9 18 14 22 5 3 11 16 13 29 2 12 11 28 21 36 16 12 16 13 -1 7
-16 -6 -16 -3 4 30 11 20 24 34 27 32 4 -2 8 39 10 92 2 54 3 104 4 112 0 8
-1 51 -2 95 -1 44 1 90 4 103 2 12 2 22 -2 22 -4 0 -6 28 -4 62 1 35 4 102 6
149 1 47 6 91 11 99 5 8 4 11 -2 7 -6 -4 -13 2 -16 13 -3 11 -2 18 2 15 5 -2
8 69 7 159 -1 107 -5 162 -11 158 -6 -3 -5 0 1 9 6 8 9 34 7 59 -5 80 -2 123
10 144 6 12 10 24 9 29 -1 4 3 7 9 7 5 0 7 5 4 10 -3 6 -2 10 2 10 5 0 17 15
28 33 10 17 26 38 34 45 13 11 13 12 1 7 -8 -4 8 15 35 42 28 28 52 49 54 47
2 -2 11 6 20 17 9 11 23 21 31 22 8 2 21 6 27 10 7 4 21 3 32 -3 13 -6 22 -7
26 0 4 6 13 5 25 -2 10 -7 17 -15 14 -19 -2 -5 5 -6 17 -4 12 2 19 2 16 -1 -2
-3 5 -15 17 -27 11 -12 36 -40 55 -62 18 -22 30 -33 26 -25 -4 8 2 5 12 -7 10
-13 34 -25 58 -29 22 -3 42 -10 43 -15 2 -5 8 -7 12 -4 5 3 17 -7 27 -22 21
-33 43 -57 43 -48 0 4 20 -9 44 -29 24 -20 49 -36 54 -36 5 0 28 -18 51 -40
22 -22 41 -37 41 -34 0 4 7 1 15 -6 8 -7 13 -16 10 -20 -3 -5 4 -6 14 -3 15 4
36 -12 81 -58 52 -54 122 -106 105 -79 -3 5 7 3 21 -5 15 -8 32 -11 37 -8 6 3
7 2 4 -4 -4 -6 5 -15 19 -22 19 -8 24 -16 19 -28 -3 -10 -3 -14 1 -10 4 4 17
-2 28 -12 12 -11 44 -31 73 -45 28 -15 77 -51 109 -81 31 -30 63 -55 70 -55 8
0 14 -5 14 -11 0 -5 4 -8 9 -5 5 4 11 3 13 -1 1 -5 18 -20 36 -35 19 -16 30
-28 25 -28 -4 0 12 -14 37 -30 25 -16 50 -30 57 -30 6 0 19 -10 27 -22 9 -12
16 -19 16 -14 0 5 11 -3 24 -17 13 -14 27 -23 32 -19 4 4 4 2 1 -4 -4 -6 5
-22 20 -35 14 -13 23 -18 19 -11 -6 11 -4 11 10 3 11 -5 40 -20 66 -32 26 -12
45 -26 42 -30 -2 -4 5 -14 16 -22 11 -7 17 -17 13 -20 -3 -4 0 -7 7 -7 7 0 19
-8 27 -17 8 -10 11 -12 7 -4 -5 9 -3 12 5 7 6 -4 9 -11 6 -16 -3 -5 -1 -11 4
-14 5 -3 18 -22 30 -42 12 -19 17 -32 11 -29 -6 3 -7 -1 -4 -9 3 -9 11 -13 17
-9 6 4 8 0 4 -11 -4 -9 -3 -15 2 -12 10 7 49 -62 53 -96 2 -15 7 -30 10 -34 4
-3 3 -16 -2 -29 -5 -13 -7 -25 -4 -27 6 -7 -23 -75 -35 -83 -5 -3 -8 -14 -6
-25 2 -12 0 -18 -4 -15 -5 3 -12 -2 -15 -11 -4 -10 -2 -13 6 -8 15 10 -41 -65
-67 -89 -11 -10 -13 -15 -5 -11 13 7 13 6 0 -11 -8 -11 -23 -28 -32 -39 -10
-11 -27 -38 -38 -60 -11 -23 -23 -40 -27 -39 -5 0 -19 -5 -33 -13 -14 -7 -21
-13 -16 -14 6 0 2 -6 -8 -13 -10 -8 -20 -27 -22 -43 -6 -55 -10 -62 -62 -113
-30 -30 -50 -56 -46 -63 4 -7 3 -8 -4 -4 -16 10 -46 -61 -44 -104 3 -54 5 -60
14 -54 4 3 8 0 8 -5 0 -6 7 -11 15 -11 8 0 15 -5 15 -11 0 -5 5 -7 12 -3 7 4
8 3 4 -4 -8 -13 19 -29 64 -37 18 -3 37 -8 41 -11 4 -2 11 0 14 6 5 8 11 8 19
1 8 -7 20 -6 37 2 13 7 35 12 49 12 14 0 28 3 31 7 5 8 40 19 66 20 7 1 16 10
19 21 5 16 8 17 15 6 7 -11 9 -11 9 2 0 20 44 62 55 52 4 -5 5 -3 2 3 -4 7 0
15 9 18 8 3 12 11 8 17 -4 8 -3 9 5 5 6 -4 14 0 17 9 4 9 13 14 20 11 8 -3 13
-1 11 4 -1 5 7 16 18 25 11 9 14 13 6 9 -9 -5 -12 -3 -7 4 4 7 13 12 21 12 8
0 20 9 28 21 8 11 38 40 65 64 28 23 49 45 46 48 -3 3 6 13 20 22 14 10 23 22
19 28 -3 6 -1 7 5 3 7 -4 17 3 24 18 6 14 15 26 20 26 5 0 6 5 2 12 -4 6 -3 8
3 5 6 -4 29 11 52 33 23 22 44 40 47 40 3 0 15 10 27 21 12 12 16 19 9 15 -7
-4 6 12 30 36 46 47 92 81 115 84 23 4 83 54 83 70 0 7 4 14 8 14 4 0 25 17
47 38 21 20 35 30 31 22 -5 -8 5 0 23 18 17 18 31 37 31 43 0 5 6 9 14 9 8 0
18 5 22 12 5 7 3 8 -7 3 -8 -5 0 5 16 21 17 16 33 27 38 26 4 -1 7 2 7 7 0 4
27 25 61 46 33 20 65 48 71 61 6 13 14 21 18 19 4 -2 16 3 26 13 10 9 24 17
29 17 26 1 86 17 81 22 -7 7 46 49 57 45 5 -1 6 2 3 7 -8 12 15 29 36 26 10
-2 16 2 15 7 -1 6 11 13 28 15 38 6 95 32 95 45 0 5 5 6 10 3 6 -3 10 -1 10 5
0 6 5 8 10 5 6 -3 13 1 16 9 3 9 10 13 15 10 11 -7 119 75 119 91 0 19 41 33
92 30 27 -1 45 2 41 8 -3 5 5 4 17 -3 12 -7 20 -8 17 -3 -6 10 51 48 60 40 2
-3 13 3 24 14 11 11 24 17 29 14 5 -3 11 4 15 15 4 11 10 18 14 15 5 -2 16 4
26 15 10 11 22 17 26 14 5 -3 9 1 9 8 0 8 7 23 16 34 8 10 12 13 9 5 -5 -8 3
-6 21 5 21 14 26 15 19 4 -7 -12 -6 -13 6 -4 8 6 28 10 44 8 17 -1 37 0 45 3
8 4 18 7 23 8 4 2 8 3 10 4 5 5 56 12 104 14 38 2 58 9 72 24 11 11 18 24 15
27 -2 3 -1 4 3 1 3 -3 11 -1 17 5 7 5 27 12 46 15 19 3 40 11 47 17 7 6 13 7
13 2 0 -5 5 -1 11 9 11 19 88 61 97 53 3 -3 12 0 20 7 13 10 14 9 7 -3 -7 -12
-6 -13 6 -3 12 10 18 10 27 1 7 -7 12 -8 12 -2 0 11 150 12 168 1 6 -5 12 -4
12 0 0 5 11 10 26 11 17 1 23 -2 19 -11 -4 -6 2 -2 12 10 13 16 22 20 33 13
10 -6 20 -4 32 7 10 9 18 13 18 9 0 -4 13 2 29 13 16 12 33 21 38 21 5 0 19
10 32 21 31 29 100 49 129 38 16 -6 24 -5 28 6 3 7 12 11 20 8 8 -3 14 -1 14
4 0 5 6 10 13 11 6 0 29 2 50 5 27 2 41 -1 44 -10 4 -9 9 -10 18 -3 6 5 15 7
18 3 4 -3 14 0 24 8 15 12 16 12 8 -1 -8 -13 -6 -13 8 -1 9 7 34 14 56 14 22
1 38 4 36 7 -2 3 5 6 16 6 10 0 19 -4 19 -9 0 -5 6 -4 13 2 8 6 16 8 19 6 3
-3 17 -1 32 5 15 5 25 7 23 2 -3 -4 23 -7 58 -7 35 0 61 4 58 9 -4 5 0 6 7 1
8 -5 51 -8 96 -7 47 1 85 -2 89 -8 4 -6 13 -7 23 -1 18 9 297 5 313 -5 5 -3 9
-1 9 3 0 10 83 9 99 -1 6 -4 11 -2 11 5 0 10 3 10 11 2 8 -8 20 -8 36 -2 16 6
22 5 18 -1 -4 -6 2 -7 18 -1 13 5 29 6 35 2 14 -8 88 -5 104 5 6 4 9 3 5 -2
-6 -10 285 -10 301 0 5 3 12 3 16 -1 10 -11 56 -9 56 2 0 7 3 7 8 0 4 -6 32
-10 62 -10 36 0 59 -5 68 -15 8 -8 11 -9 7 -2 -5 9 1 11 20 8 15 -3 30 -8 33
-10 3 -3 11 -1 18 5 8 7 14 7 19 -1 5 -8 11 -7 23 2 10 8 13 9 9 1 -4 -6 -2
-15 5 -19 17 -11 58 -11 58 -1 0 5 6 4 13 -2 8 -6 16 -8 20 -5 11 11 62 12 76
0 12 -9 13 -8 7 3 -6 8 0 7 18 -4 14 -10 38 -19 54 -20 15 -1 38 -7 52 -13 14
-5 30 -10 35 -11 6 -1 21 -9 34 -18 17 -11 21 -11 15 -2 -6 11 -5 12 7 3 8 -6
27 -10 42 -9 17 1 26 -2 24 -9 -3 -7 13 -11 43 -11 27 0 48 -4 47 -10 -1 -5 3
-9 8 -10 6 0 20 -6 33 -13 18 -10 22 -10 22 0 0 10 2 10 8 1 4 -6 23 -14 42
-16 19 -3 35 -6 35 -7 0 -2 39 -3 88 -5 48 -1 90 -4 93 -8 10 -10 34 5 27 17
-5 7 -2 7 8 -1 22 -18 83 -27 73 -11 -6 9 -3 9 9 -1 9 -7 17 -10 17 -6 0 4 8
1 17 -6 15 -12 16 -12 8 1 -10 17 -7 15 65 -41 43 -33 121 -65 148 -60 6 1 12
-3 12 -9 0 -6 4 -9 9 -6 4 3 16 -3 26 -14 10 -11 24 -20 32 -20 8 0 12 -4 9
-9 -3 -4 7 -6 22 -4 37 6 87 1 87 -8 0 -1 9 -3 20 -5 41 -6 55 -10 61 -17 4
-4 13 -2 21 4 8 7 13 8 13 1 0 -5 14 -8 30 -7 17 1 30 -2 30 -8 0 -6 3 -8 6
-4 3 3 20 -10 36 -29 17 -19 33 -32 36 -30 2 3 18 -4 35 -16 19 -13 28 -16 23
-7 -4 7 -1 6 8 -5 10 -12 21 -16 33 -12 9 4 14 4 10 0 -9 -10 55 -56 70 -50 7
3 15 1 19 -5 4 -7 10 -6 19 1 8 7 15 7 19 1 3 -5 14 -8 24 -6 9 1 23 -3 31 -9
12 -9 13 -8 6 4 -5 8 12 -4 38 -25 26 -22 47 -43 47 -47 0 -4 3 -7 8 -6 4 1
17 -3 28 -10 12 -6 25 -8 29 -4 5 4 5 1 1 -5 -4 -7 -3 -13 1 -13 12 0 84 -66
78 -72 -2 -2 14 -3 36 -2 21 1 42 -3 45 -7 3 -5 13 -5 22 0 11 6 28 4 47 -4
17 -7 25 -14 19 -14 -12 -1 32 -51 76 -86 25 -20 25 -20 10 0 l-15 20 25 -20
c14 -11 27 -23 30 -26 3 -3 20 -14 38 -23 20 -10 30 -21 26 -29 -4 -7 -4 -9 1
-5 4 4 27 -9 51 -29 24 -19 44 -32 44 -27 0 4 6 0 13 -11 8 -10 19 -15 26 -11
6 4 10 4 9 -1 -1 -4 8 -19 20 -33 12 -14 31 -36 43 -50 11 -14 18 -19 14 -12
-3 6 -1 12 5 12 6 0 13 -7 16 -15 4 -8 10 -12 16 -9 5 3 19 -2 30 -13 14 -12
19 -13 13 -3 -5 9 0 8 13 -4 12 -11 22 -16 22 -11 0 4 18 -15 41 -44 22 -28
43 -51 46 -51 3 0 -1 8 -8 18 -13 17 32 -22 76 -65 12 -13 26 -23 31 -23 5 0
18 -16 29 -36 19 -36 85 -79 100 -66 5 4 5 1 1 -5 -4 -7 -3 -13 2 -13 5 0 35
-22 66 -50 31 -27 54 -50 51 -50 -3 0 15 -18 40 -40 25 -22 43 -40 38 -40 -4
0 3 -7 15 -16 12 -8 20 -19 17 -24 -3 -5 4 -19 15 -30 12 -12 19 -24 16 -27
-7 -8 32 -44 79 -73 20 -12 34 -28 31 -35 -2 -7 3 -12 12 -11 9 0 22 -10 29
-24 7 -14 18 -24 24 -22 6 1 8 -2 4 -8 -3 -5 -1 -10 6 -10 7 0 9 -3 6 -7 -4
-3 10 -20 30 -37 20 -17 47 -41 60 -54 14 -14 28 -20 36 -16 7 5 6 0 -3 -12
-8 -10 -10 -16 -5 -11 4 4 17 -1 28 -10 11 -10 17 -12 12 -4 -5 8 2 7 20 -5
33 -22 86 -22 152 0 46 15 75 38 114 90 12 18 12 19 -1 11 -13 -8 -13 -6 -1 8
7 9 11 23 8 31 -3 7 -2 17 3 22 4 5 3 20 -3 34 -5 14 -11 34 -11 45 -1 11 -5
20 -11 20 -24 0 -109 111 -98 128 3 6 1 7 -5 3 -7 -4 -12 -2 -12 3 0 20 -3 26
-19 39 -12 10 -12 12 -1 6 8 -4 2 5 -13 19 -15 15 -31 27 -35 27 -12 0 -71 68
-64 74 3 3 0 6 -7 6 -7 0 -9 5 -5 12 4 7 3 8 -4 4 -6 -3 -16 2 -21 13 -6 11
-20 23 -31 26 -11 4 -18 10 -15 14 2 4 -7 14 -20 21 -14 8 -40 32 -58 54 -17
23 -45 54 -62 70 -16 16 -29 35 -27 43 2 8 -1 12 -6 9 -6 -4 -8 3 -4 16 3 11
1 19 -4 16 -5 -4 -9 7 -9 23 0 16 3 29 6 29 4 0 10 7 13 16 4 9 2 13 -5 8 -21
-13 25 51 61 84 19 18 34 37 32 42 -1 6 4 10 10 10 7 0 28 14 46 31 17 16 32
27 32 24 0 -3 10 3 22 14 11 11 26 17 32 14 6 -3 8 -3 4 2 -14 15 84 100 127
110 40 9 84 38 105 68 21 31 80 77 80 63 0 -4 16 11 36 31 20 21 34 31 30 23
-4 -8 -1 -6 6 4 25 37 49 57 60 50 6 -4 8 -3 4 4 -4 6 8 18 29 28 19 9 32 21
28 27 -3 6 -1 7 5 3 6 -4 35 18 65 49 30 30 61 56 68 56 8 1 25 3 39 5 14 3
30 5 37 6 7 1 10 5 7 9 -3 5 7 11 21 15 14 3 24 9 21 11 -5 5 10 22 58 63 16
14 26 18 21 10 -5 -9 1 -7 16 5 13 11 41 29 62 39 34 18 42 27 38 49 -1 5 3 6
9 2 5 -3 10 -2 10 3 0 6 21 22 46 37 53 31 74 47 118 92 17 17 56 42 86 56 30
13 74 43 97 67 38 39 133 94 117 68 -4 -6 7 -3 25 8 17 10 31 22 31 27 0 4 5
5 12 1 6 -4 8 -3 5 3 -4 6 12 28 35 49 23 22 53 50 68 64 15 14 32 25 38 26
29 2 33 5 26 16 -5 7 -3 8 7 2 8 -5 28 -9 44 -10 17 0 43 -6 58 -12 16 -7 31
-12 34 -12 3 0 17 -12 31 -27 13 -16 21 -21 17 -13 -4 8 3 4 15 -10 12 -14 18
-18 14 -10 -7 13 -5 13 9 1 18 -15 23 -26 7 -16 -5 3 -10 -1 -10 -10 0 -9 5
-13 10 -10 6 3 10 -1 10 -10 0 -9 4 -14 9 -11 4 3 7 -6 5 -19 -1 -14 2 -27 7
-31 5 -3 7 -10 4 -15 -4 -5 -2 -9 3 -9 5 0 9 -6 10 -12 0 -7 3 -24 7 -38 11
-41 12 -104 2 -124 -7 -13 -6 -16 3 -11 9 5 9 3 2 -11 -8 -16 -9 -83 -1 -120
1 -5 1 -11 -1 -14 -2 -6 -11 -81 -11 -95 0 -5 1 -68 1 -140 0 -71 0 -152 0
-180 -1 -27 3 -72 9 -99 5 -27 6 -56 3 -64 -3 -10 -1 -13 6 -8 8 5 10 2 6 -9
-4 -8 1 -26 10 -40 9 -14 14 -25 10 -25 -4 0 -1 -6 5 -14 11 -13 22 -46 23
-73 1 -7 5 -13 10 -13 11 0 6 -23 -7 -32 -6 -5 -6 -8 2 -8 6 0 10 -8 8 -17 -1
-10 3 -24 9 -32 9 -12 8 -13 -3 -7 -11 7 -11 5 -3 -10 6 -10 7 -27 2 -39 -5
-12 -5 -27 -1 -34 10 -16 3 -118 -9 -142 -7 -12 -6 -20 1 -25 8 -4 7 -9 -2
-15 -9 -5 -10 -9 -2 -9 6 0 9 -9 6 -20 -3 -11 -2 -28 2 -37 5 -10 7 -24 6 -31
-1 -8 6 -23 16 -35 12 -14 13 -18 3 -12 -13 8 -13 6 -1 -8 7 -9 11 -23 8 -31
-3 -7 2 -22 12 -33 10 -10 15 -25 13 -32 -3 -9 0 -11 8 -6 8 5 11 4 7 -2 -4
-6 -3 -23 2 -39 4 -16 4 -41 0 -56 -4 -16 -3 -28 2 -28 6 0 6 -7 0 -18 -5 -10
-8 -34 -5 -53 3 -19 1 -29 -3 -22 -5 7 -8 -13 -8 -45 0 -38 5 -61 15 -70 8 -8
9 -11 3 -7 -10 4 -13 -8 -14 -47 -1 -29 0 -57 1 -63 3 -15 2 -299 -3 -377 -2
-38 1 -64 6 -61 5 3 3 -5 -4 -18 -7 -13 -12 -25 -11 -26 8 -12 0 -33 -10 -27
-8 5 -9 2 -5 -9 4 -10 2 -17 -4 -17 -6 0 -9 -7 -6 -15 4 -8 2 -17 -4 -21 -6
-3 -8 -12 -5 -19 3 -8 -1 -18 -8 -24 -7 -6 -12 -21 -11 -33 1 -13 -2 -31 -7
-40 -5 -10 -4 -35 2 -60 6 -24 11 -47 11 -53 0 -29 -9 -66 -20 -79 -7 -8 -9
-21 -5 -27 4 -7 3 -9 -3 -6 -14 9 -56 -70 -47 -85 5 -7 2 -8 -6 -3 -10 6 -12
4 -7 -9 4 -10 3 -15 -3 -11 -12 7 -12 7 -14 -72 -1 -35 1 -63 4 -63 3 0 4 -18
2 -40 -2 -22 -9 -40 -14 -40 -7 0 -7 -4 -1 -12 6 -7 8 -22 6 -33 -2 -11 -4
-42 -4 -70 0 -27 -3 -54 -7 -60 -7 -11 -11 -26 -17 -68 -4 -20 -1 -26 8 -21 9
6 9 4 1 -7 -6 -8 -10 -22 -9 -32 2 -9 -1 -15 -5 -12 -5 3 -11 -3 -15 -14 -6
-19 -50 -71 -56 -68 -2 1 -3 0 -2 -2 2 -2 -9 -20 -24 -39 -15 -20 -21 -32 -14
-28 7 5 1 -9 -12 -30 -38 -57 -52 -129 -34 -168 6 -12 5 -16 -1 -12 -7 4 -9
-7 -8 -29 2 -19 0 -32 -5 -30 -4 3 -14 -4 -22 -15 -7 -11 -17 -17 -20 -14 -4
4 -5 -3 -2 -14 2 -12 -1 -25 -7 -28 -7 -5 -8 -2 -3 7 8 12 6 12 -8 0 -9 -7
-15 -17 -12 -21 3 -5 1 -11 -5 -15 -6 -4 -8 -10 -5 -15 3 -5 0 -12 -6 -16 -8
-5 -9 -3 -4 6 5 9 4 11 -3 6 -7 -4 -12 -13 -12 -19 0 -13 -41 -53 -51 -50 -3
1 -6 -3 -7 -10 -2 -25 -8 -47 -15 -53 -12 -12 -8 -26 5 -18 7 5 8 3 3 -7 -5
-7 -10 -25 -11 -38 -2 -14 -10 -31 -18 -37 -9 -6 -12 -15 -8 -19 4 -5 2 -5 -5
-1 -8 4 -24 -10 -43 -36 -17 -24 -38 -52 -47 -63 -10 -11 -16 -20 -15 -20 1 0
-1 -10 -4 -22 -4 -13 -10 -20 -15 -17 -5 3 -9 0 -9 -5 0 -6 -15 -26 -33 -44
-47 -46 -75 -82 -57 -72 8 5 4 -3 -10 -16 -14 -13 -38 -40 -54 -59 -15 -19
-25 -28 -21 -20 4 8 -5 2 -19 -13 -14 -15 -26 -25 -26 -22 0 4 -16 -10 -35
-31 -19 -20 -35 -43 -35 -50 0 -8 -4 -14 -8 -14 -4 0 -25 -15 -45 -34 -20 -18
-37 -32 -37 -29 0 3 -18 -19 -40 -48 -22 -30 -60 -76 -86 -104 -41 -45 -98
-145 -73 -130 10 7 6 -36 -6 -55 -3 -5 -1 -10 4 -10 6 0 10 -3 9 -7 0 -5 2
-16 5 -25 4 -10 9 -25 12 -34 3 -8 10 -12 16 -8 8 4 9 3 5 -4 -4 -7 -2 -12 4
-12 6 0 9 -4 6 -8 -6 -10 30 -43 37 -35 3 2 10 -4 15 -14 8 -15 21 -18 74 -17
34 1 74 6 88 12 14 5 60 43 102 84 43 41 79 70 81 65 1 -5 9 4 17 20 7 15 28
41 44 56 17 16 25 26 19 22 -29 -14 -10 4 36 36 27 18 47 37 45 41 -3 5 -2 8
3 7 23 -4 34 4 52 39 11 21 27 44 35 51 9 7 13 18 9 24 -3 6 -1 7 5 3 8 -4 16
3 22 18 5 14 12 26 15 26 4 0 3 -6 -1 -12 -4 -7 3 -3 15 10 12 12 25 22 30 22
14 0 61 52 55 61 -3 5 0 9 5 9 6 0 10 3 9 8 -1 4 10 20 25 36 15 16 25 36 22
43 -2 8 0 11 5 8 6 -3 13 1 16 9 3 9 10 13 15 10 5 -3 9 -1 9 5 0 5 16 31 36
56 19 26 30 43 22 39 -21 -13 11 26 57 68 22 21 36 38 30 38 -5 0 -5 4 2 8 6
4 13 30 16 58 4 52 34 117 49 108 4 -3 8 -1 8 3 0 5 7 18 16 29 8 10 12 12 8
4 -4 -9 -3 -12 2 -7 5 5 9 12 9 15 2 20 18 52 26 52 5 0 9 6 9 14 0 8 14 28
31 46 24 23 32 41 34 75 2 24 7 49 11 56 4 7 3 9 -4 5 -18 -11 -9 48 10 62 13
10 15 18 8 37 -6 16 -6 25 0 25 5 0 7 6 4 14 -3 8 -1 17 4 20 6 3 8 15 5 25
-5 21 15 58 32 58 6 0 15 10 21 22 6 12 21 31 33 42 23 22 28 34 9 24 -7 -4
-4 1 7 10 12 9 19 25 17 38 -2 16 0 18 6 9 7 -11 11 -7 17 15 5 15 7 34 6 42
-1 7 2 10 8 6 7 -4 8 1 3 17 -5 13 -7 34 -6 48 1 14 -2 35 -7 48 -5 13 -6 21
-1 19 4 -3 6 9 6 26 -1 18 4 38 10 46 8 11 8 13 -1 7 -14 -8 -18 6 -6 18 6 6
13 49 14 90 0 11 5 29 12 40 6 12 10 25 9 30 -2 4 2 14 9 22 6 8 9 21 5 29 -3
8 -1 15 4 15 6 0 10 5 10 11 0 5 -6 7 -12 3 -7 -4 -4 2 6 14 11 12 16 22 11
22 -4 0 -2 6 4 13 6 8 8 17 4 20 -3 4 -2 7 4 7 12 0 9 62 -3 82 -4 6 -3 9 2 5
5 -3 10 11 11 31 0 21 4 51 8 67 3 17 8 45 10 63 2 18 7 43 12 55 4 12 8 24 8
27 6 21 18 39 24 35 4 -2 8 2 8 10 0 8 -5 12 -10 8 -5 -3 -1 7 9 23 14 21 15
26 4 19 -12 -7 -13 -6 -4 6 16 20 29 63 17 56 -6 -4 -6 9 0 33 6 21 13 37 16
35 3 -2 7 8 7 21 1 13 -2 21 -7 18 -12 -7 -7 19 6 29 6 6 6 10 -3 14 -6 2 -9
9 -6 15 9 14 11 77 2 72 -5 -3 -8 12 -8 33 0 22 4 33 8 26 4 -7 8 9 9 35 0 40
-1 43 -7 17 l-8 -30 -1 32 c0 17 4 35 9 38 6 3 10 12 10 18 0 7 -4 6 -10 -3
-6 -9 -10 -10 -10 -3 0 6 5 15 10 18 6 3 9 23 9 43 l-2 37 -7 -35 c-7 -33 -8
-32 -7 13 0 29 4 43 8 35 5 -8 9 7 9 38 0 27 -5 55 -12 62 -9 9 -9 12 0 12 16
0 13 77 -5 113 -11 21 -11 27 -1 25 14 -3 19 31 7 47 -4 6 -4 17 1 25 13 20
12 33 0 25 -6 -4 -7 2 -1 17 12 32 12 33 -5 73 -8 20 -12 40 -9 46 4 5 0 12
-9 15 -8 3 -12 12 -9 20 3 7 -1 16 -9 19 -8 3 -15 11 -16 18 -1 24 -11 56 -23
79 -7 13 -12 56 -11 108 5 216 12 548 13 580 1 19 -2 58 -6 85 -4 28 -8 56 -8
63 0 6 -4 12 -8 12 -4 0 -10 7 -13 16 -4 10 -2 13 7 7 6 -4 4 5 -6 20 -9 14
-18 38 -19 51 -1 14 -5 23 -9 20 -12 -7 -16 19 -8 49 5 19 4 25 -3 21 -7 -4
-8 -2 -4 4 9 16 11 136 2 150 -4 7 -3 12 1 12 9 0 8 73 -1 97 -3 7 -1 13 4 13
6 0 10 5 10 11 0 5 -4 8 -8 5 -4 -2 -8 4 -8 14 0 10 3 17 6 15 10 -6 -4 167
-15 185 -3 5 0 10 7 10 8 0 9 3 3 8 -5 4 -11 27 -12 52 -4 92 -6 109 -15 103
-6 -3 -3 8 5 24 9 17 12 35 7 42 -8 13 -4 93 5 119 3 7 1 11 -3 8 -6 -3 -6
105 -1 149 1 6 0 15 -1 20 -6 25 1 56 11 49 8 -5 9 -2 2 11 -6 9 -7 35 -3 57
6 33 4 43 -14 60 -11 12 -15 18 -9 14 9 -5 11 -2 7 8 -3 9 -11 13 -18 9 -7 -5
-7 -2 1 8 10 12 9 21 -1 41 -8 15 -12 29 -10 31 8 7 -87 107 -102 107 -8 0
-14 5 -14 10 0 6 -7 10 -16 10 -8 0 -12 5 -8 11 4 8 0 8 -15 0 -16 -9 -21 -9
-19 0 2 6 -10 12 -29 13 -17 0 -29 -2 -27 -5 2 -4 -3 -10 -12 -13 -8 -3 -12
-2 -9 3 8 14 -53 -18 -62 -32 -5 -7 -17 -19 -27 -27 -18 -13 -19 -13 -11 0 5
8 -11 -5 -35 -30 -24 -25 -43 -48 -42 -52 2 -7 -34 -22 -58 -23 -8 0 -21 -4
-29 -9 -9 -6 -12 -5 -8 1 16 25 -62 -26 -101 -67 -24 -25 -40 -38 -36 -30 5 9
-1 7 -15 -5 -13 -11 -26 -20 -30 -19 -12 1 -91 -37 -91 -44 0 -11 -123 -97
-133 -94 -5 1 -7 -1 -5 -5 2 -5 -18 -30 -45 -58 -28 -27 -46 -44 -42 -36 5 8
-3 6 -21 -5 -15 -11 -25 -14 -21 -7 12 19 -74 -14 -98 -38 -11 -11 -37 -32
-57 -48 -21 -16 -35 -31 -32 -33 2 -3 -7 -4 -21 -3 -14 2 -25 -1 -25 -6 0 -6
-4 -7 -10 -4 -5 3 -10 3 -10 -2 0 -4 -18 -19 -40 -33 -22 -13 -40 -28 -40 -32
0 -4 -6 -8 -14 -8 -8 0 -27 -15 -42 -32 -15 -18 -29 -32 -30 -30 -9 5 -25 1
-22 -5 2 -5 -16 -28 -41 -53 -24 -25 -40 -38 -36 -30 5 8 -3 5 -17 -8 -14 -13
-29 -22 -34 -20 -11 3 -26 -9 -92 -71 -26 -25 -36 -36 -22 -25 l25 19 -19 -22
c-10 -13 -22 -20 -27 -17 -5 3 -19 0 -31 -7 -12 -7 -31 -13 -43 -14 -35 -4
-36 -5 -30 -15 3 -6 -1 -7 -9 -4 -12 5 -16 0 -16 -17 0 -19 -2 -21 -10 -9 -9
13 -10 13 -10 0 0 -8 -10 -26 -21 -40 -11 -14 -18 -18 -14 -10 4 8 -2 5 -13
-7 -11 -12 -22 -20 -24 -17 -3 2 -16 -7 -29 -21 -13 -13 -29 -25 -36 -25 -17
0 -54 -50 -46 -63 3 -6 1 -7 -5 -3 -7 4 -12 3 -12 -1 0 -5 -18 -19 -39 -33
-22 -13 -37 -28 -34 -34 3 -5 1 -6 -5 -2 -9 5 -100 -65 -122 -94 -7 -9 -43
-24 -53 -21 -5 1 -6 -3 -3 -8 3 -5 -12 -16 -34 -25 -21 -8 -44 -26 -51 -38
-23 -42 -85 -86 -116 -82 -12 2 -25 -1 -28 -6 -4 -6 -11 -8 -16 -4 -5 3 -8 1
-7 -5 3 -12 -79 -91 -87 -83 -3 3 -5 0 -5 -7 0 -7 -7 -11 -15 -8 -8 4 -17 1
-21 -5 -5 -7 -2 -8 7 -4 8 4 3 -1 -11 -12 -14 -12 -27 -19 -29 -16 -2 2 -11
-2 -19 -9 -13 -10 -14 -9 -7 3 8 13 7 13 -9 1 -28 -23 -85 -28 -203 -18 -36 3
-50 1 -46 -7 3 -6 0 -5 -8 2 -16 15 -33 16 -23 0 5 -7 3 -8 -6 -3 -11 7 -33
11 -87 17 -7 1 -11 3 -9 6 3 2 -10 19 -29 37 -18 19 -30 37 -26 41 3 4 1 4 -6
0 -7 -3 -27 8 -47 26 -49 46 -64 58 -76 58 -5 0 -10 4 -10 8 0 14 -65 29 -88
21 -12 -5 -24 -4 -27 1 -3 4 -16 7 -30 6 -13 -2 -22 1 -19 5 3 5 0 9 -7 9 -7
0 -10 3 -7 6 6 6 -35 54 -46 54 -4 0 -16 9 -28 20 -12 10 -25 17 -30 14 -4 -3
-8 -1 -8 5 0 5 -10 13 -22 17 -13 4 -37 18 -55 32 -17 15 -43 27 -57 28 -14 0
-32 6 -40 13 -7 6 -18 11 -22 10 -19 -3 -55 14 -45 21 8 4 4 13 -11 26 -22 18
-22 18 -8 0 14 -18 14 -18 -7 -6 -12 8 -20 17 -17 21 2 4 -2 11 -9 17 -15 12
-89 37 -101 34 -5 -2 -18 5 -29 15 -15 13 -18 14 -13 3 4 -8 -1 -6 -11 5 -10
11 -29 21 -43 22 -87 8 -95 11 -143 59 -27 27 -52 49 -56 49 -3 1 -16 6 -29
13 -12 7 -28 10 -34 6 -7 -4 -8 -3 -4 4 4 7 2 12 -4 12 -6 0 -8 4 -5 10 3 6
-1 7 -10 4 -8 -4 -22 -1 -29 5 -18 15 -64 20 -93 9 -14 -4 -23 -4 -23 3 0 6
-5 7 -11 4 -24 -15 -60 -12 -70 7 -5 10 -14 16 -19 13 -5 -3 -12 0 -15 6 -4 5
-13 8 -21 5 -7 -3 -17 2 -22 10 -5 9 -12 15 -15 15 -20 -3 -28 0 -22 9 3 6 -1
7 -9 4 -9 -3 -16 -2 -16 3 0 6 -12 15 -26 21 -15 7 -22 17 -18 24 4 7 3 8 -4
4 -7 -4 -12 -2 -12 4 0 6 -4 9 -9 6 -5 -3 -14 1 -21 9 -7 8 -21 15 -31 15 -10
0 -20 4 -24 10 -3 6 -15 6 -30 0 -16 -6 -27 -6 -31 1 -3 6 -13 8 -21 5 -8 -3
-11 -1 -8 4 4 6 -8 10 -29 10 -19 0 -42 3 -52 7 -12 4 -15 3 -10 -5 5 -9 1 -9
-18 -2 -17 6 -27 6 -32 -1 -4 -6 -11 -5 -22 3 -13 11 -14 11 -8 0 7 -11 4 -11
-12 -1 -16 10 -23 10 -35 0 -12 -9 -17 -9 -23 0 -5 8 -3 9 6 4 9 -5 11 -4 6 3
-5 8 -13 9 -25 2 -12 -6 -22 -5 -31 3 -10 9 -11 9 -6 0 10 -18 2 -16 -39 7
-21 12 -34 15 -30 8 4 -7 -1 -4 -9 6 -9 11 -16 16 -16 11 0 -4 -10 0 -22 11
-13 12 -18 13 -13 4 8 -13 7 -13 -8 -1 -9 7 -17 11 -17 8 0 -3 -12 0 -26 8
-15 7 -32 11 -39 8 -8 -2 -18 4 -24 16 -6 11 -20 23 -31 26 -11 4 -18 10 -15
15 3 5 0 12 -6 16 -8 4 -9 3 -5 -4 4 -7 2 -12 -3 -12 -6 0 -11 4 -11 10 0 5
-7 6 -17 3 -12 -5 -14 -3 -8 8 4 8 5 11 0 7 -4 -4 -17 -3 -28 3 -14 8 -18 8
-13 0 9 -14 -7 -14 -20 -1 -15 15 -196 21 -187 6 4 -7 1 -6 -8 1 -9 7 -26 10
-40 7 -13 -3 -28 -5 -34 -5 -5 0 -42 2 -82 3 -47 2 -69 0 -65 -7 3 -5 -1 -5
-9 1 -20 16 -78 23 -83 10 -3 -7 -5 -7 -5 1 -1 6 -10 9 -23 5 -16 -4 -19 -2
-13 9 7 11 6 12 -6 2 -12 -10 -18 -10 -27 -1 -9 9 -12 9 -12 -1 0 -11 -3 -11
-15 -1 -9 7 -18 10 -21 7 -3 -3 -19 -1 -35 3 -18 5 -27 5 -24 0 5 -9 -54 -3
-64 6 -2 2 -12 -1 -22 -7 -11 -5 -19 -6 -19 -1 0 11 -51 10 -69 -2 -8 -5 -12
-5 -8 0 3 5 -31 9 -78 9 -46 0 -81 -4 -78 -8 3 -5 -3 -5 -13 1 -11 6 -119 9
-267 8 -137 -1 -250 1 -252 4 -4 7 -66 4 -103 -4 -20 -5 -23 -4 -12 4 13 8 13
10 -2 10 -9 0 -19 -4 -22 -8 -3 -4 -23 -7 -46 -6 -22 1 -42 -2 -45 -6 -2 -4
-25 -4 -49 0 -27 4 -43 3 -39 -2 3 -6 -3 -8 -13 -7 -11 2 -25 0 -33 -5 -8 -5
-12 -5 -8 0 4 7 -60 9 -136 5 -5 -1 -5 -6 -1 -13 5 -7 3 -8 -6 -3 -7 4 -64 9
-127 11 -62 2 -118 6 -123 9 -5 3 -11 1 -15 -5 -4 -7 -12 -7 -25 0 -25 13 -33
13 -24 -2 6 -10 4 -10 -7 -2 -8 5 -20 9 -26 8 -7 -1 -20 -2 -29 -3 -9 0 -12
-6 -8 -13 4 -6 3 -8 -4 -4 -6 3 -23 1 -39 -6 -15 -6 -30 -12 -33 -12 -3 -1
-11 -5 -17 -9 -7 -5 -19 -5 -25 -1 -7 4 -10 3 -5 -1 14 -16 -102 -81 -128 -72
-8 4 -17 1 -21 -5 -4 -6 -3 -8 4 -4 6 3 13 2 16 -3 7 -10 -20 -9 -30 2 -4 4
-14 1 -22 -6 -13 -10 -14 -9 -7 3 7 11 2 10 -19 -4 -18 -11 -25 -13 -21 -5 5
8 -4 3 -20 -11 -16 -14 -24 -18 -20 -10 8 13 6 13 -7 2 -12 -9 -18 -10 -23 -2
-5 8 -12 7 -23 -3 -10 -8 -26 -13 -37 -11 -40 8 -84 10 -83 5 2 -19 -4 -22
-19 -10 -14 12 -16 12 -8 0 6 -11 5 -12 -6 -5 -19 12 -129 12 -129 0 0 -5 -3
-6 -7 -3 -3 4 -13 1 -21 -6 -13 -10 -14 -9 -7 3 8 13 7 13 -8 1 -9 -7 -17 -10
-17 -6 0 4 -8 1 -17 -6 -13 -11 -15 -11 -9 -1 6 10 0 9 -23 -2 -17 -9 -31 -14
-31 -11 0 3 -8 -3 -18 -12 -35 -33 -72 -63 -72 -57 0 3 -19 -9 -42 -28 -23
-18 -39 -28 -35 -21 4 6 -11 2 -34 -8 -44 -22 -97 -32 -113 -21 -18 11 -59 9
-93 -4 -18 -7 -33 -10 -33 -6 0 4 -5 0 -10 -8 -5 -8 -17 -15 -27 -15 -10 0
-17 -6 -15 -13 1 -8 -2 -11 -8 -7 -9 6 -24 -4 -85 -53 -5 -5 -18 -20 -28 -33
-16 -21 -28 -25 -75 -27 -75 -3 -87 -5 -106 -21 -9 -7 -16 -11 -16 -7 0 4 -15
-1 -32 -11 -18 -9 -41 -16 -50 -14 -10 1 -18 -3 -18 -9 0 -6 -4 -9 -9 -6 -4 3
-16 -3 -26 -14 -10 -11 -23 -17 -29 -13 -6 3 -8 3 -4 -1 9 -11 -48 -66 -70
-67 -9 -1 -25 -2 -34 -2 -10 0 -15 -3 -13 -7 3 -4 -7 -7 -22 -7 -14 0 -32 -8
-38 -17 -7 -9 -26 -21 -44 -27 -17 -6 -31 -15 -31 -21 0 -5 -4 -6 -10 -3 -5 3
-10 2 -10 -3 0 -5 -16 -17 -35 -28 -19 -10 -35 -22 -35 -26 0 -5 -7 -8 -15 -8
-14 0 -20 -12 -16 -33 1 -5 -3 -6 -8 -3 -5 4 -11 2 -13 -4 -2 -6 -14 -12 -26
-15 -13 -2 -32 -7 -42 -10 -10 -3 -21 -1 -25 5 -3 6 -11 8 -16 4 -5 -3 -6 -10
-3 -16 4 -7 2 -8 -5 -4 -13 9 -84 -32 -76 -44 5 -8 -54 -37 -68 -32 -5 1 -5
-3 -1 -9 5 -9 2 -10 -10 -6 -12 5 -22 -3 -36 -26 -11 -17 -20 -28 -20 -23 0 6
-9 0 -21 -13 -12 -12 -28 -20 -36 -17 -9 4 -11 2 -7 -5 4 -7 1 -10 -7 -7 -8 3
-22 1 -33 -4 -12 -7 -16 -7 -12 0 5 9 -64 8 -189 -2 -51 -4 -82 8 -125 47 -19
18 -28 23 -20 12 14 -19 14 -19 -3 -6 -9 7 -16 21 -15 30 2 8 -1 16 -7 16 -25
3 -74 42 -90 72 -10 18 -21 31 -23 28 -3 -3 -15 1 -26 8 -34 21 -78 38 -72 28
7 -11 -20 -8 -31 4 -4 4 -1 4 7 0 8 -5 -3 10 -25 33 -40 43 -52 52 -39 30 4
-7 -10 5 -30 27 -21 22 -34 33 -30 25 5 -10 -1 -8 -16 5 -14 12 -20 14 -15 5
14 -23 -20 4 -86 71 -31 31 -78 69 -105 85 -27 15 -51 31 -54 35 -34 45 -46
59 -53 59 -4 0 -20 12 -34 28 -14 15 -19 18 -12 7 29 -42 -89 69 -126 118 -9
12 -13 17 -10 10 4 -8 -1 -8 -19 0 -13 7 -22 15 -20 18 2 4 -3 10 -12 13 -10
4 -13 2 -8 -7 8 -13 -27 16 -95 81 -25 23 -53 43 -63 43 -31 2 -36 4 -44 12
-4 4 -14 7 -23 7 -18 0 -71 49 -71 67 0 10 -34 37 -50 38 -3 0 -17 10 -30 23
-14 12 -35 25 -47 28 -13 4 -20 10 -17 15 3 5 1 9 -4 9 -4 0 -17 8 -28 18 -10
9 -28 24 -39 32 -17 13 -18 13 -11 0 4 -9 1 -8 -7 3 -8 9 -18 17 -23 17 -5 0
-16 9 -24 19 -7 11 -17 18 -22 15 -4 -3 -11 2 -14 11 -4 9 -13 14 -20 11 -7
-3 -11 0 -8 7 2 7 -3 21 -12 32 -8 11 -12 13 -8 5 4 -8 -5 -4 -19 9 -15 14
-27 19 -27 13 0 -6 -7 -9 -17 -5 -11 4 -14 3 -9 -5 5 -8 2 -10 -8 -6 -9 3 -14
9 -11 13 2 4 -6 7 -18 6 -24 -2 -70 42 -60 58 3 6 1 7 -5 3 -7 -4 -12 -3 -12
2 0 6 -13 18 -29 29 -86 55 -145 97 -162 114 -11 11 -24 17 -29 14 -6 -4 -7 1
-3 11 4 11 2 15 -4 11 -6 -4 -22 2 -36 14 -15 11 -28 19 -31 17 -2 -2 -23 18
-45 44 -29 32 -48 46 -61 43 -11 -2 -20 0 -20 5 0 5 -8 9 -17 9 -50 1 -71 9
-100 40 -18 19 -33 39 -33 43 0 4 -4 7 -9 6 -6 -2 -31 17 -57 42 -26 25 -44
39 -39 31 6 -10 4 -12 -6 -5 -23 14 -43 14 -72 -1z"/>
<path d="M21762 12802 c-18 -55 -22 -92 -22 -187 l0 -118 75 -70 c160 -147
252 -327 308 -602 21 -107 22 -126 22 -765 l0 -654 -165 -28 c-648 -108 -1302
-154 -1680 -119 -440 42 -756 159 -868 321 l-27 39 -128 1 -127 0 -75 -52 -75
-52 0 -127 0 -126 54 -87 c266 -422 691 -644 1341 -697 275 -23 1187 0 1634
41 63 6 115 9 116 8 1 -2 5 -400 7 -886 l5 -882 -36 -10 c-78 -20 -393 -80
-526 -99 -251 -36 -410 -45 -589 -32 -455 33 -815 138 -1071 310 l-60 41 -133
0 -132 0 -65 -42 -65 -43 0 -126 0 -126 51 -69 c123 -165 242 -279 404 -386
410 -272 898 -367 1742 -338 164 5 345 14 402 20 58 5 106 8 108 6 18 -18 71
-1306 73 -1767 l0 -36 -99 23 c-510 121 -1132 161 -1663 108 -486 -48 -891
-184 -1253 -422 -356 -233 -577 -498 -650 -777 -44 -169 -46 -519 -5 -685 26
-105 83 -225 148 -311 229 -301 723 -521 1342 -596 186 -22 814 -25 985 -5
542 66 954 229 1320 520 226 180 457 516 565 822 13 36 26 69 30 73 15 17 749
-470 1491 -989 602 -422 794 -505 1133 -492 181 7 236 32 279 128 17 37 21 71
25 190 6 216 -20 316 -123 469 -105 157 -269 315 -529 510 -383 288 -794 540
-1263 775 -256 128 -352 171 -648 291 l-250 102 -3 1104 -2 1105 127 28 c701
155 1791 567 2142 810 103 71 190 159 231 236 l35 65 3 166 c4 203 -3 237 -67
300 -75 76 -138 91 -396 96 -186 4 -222 2 -315 -17 -131 -26 -457 -135 -700
-233 -102 -41 -292 -118 -423 -171 -268 -109 -601 -236 -618 -236 -11 0 -10
1573 2 1584 3 4 125 27 270 52 644 110 1533 308 1839 410 297 99 476 221 527
357 7 19 12 97 12 197 0 145 -2 170 -20 210 -27 60 -53 87 -120 120 -96 49
-197 64 -439 64 -346 1 -524 -34 -1560 -304 -274 -71 -501 -130 -504 -130 -12
0 -6 290 9 422 42 388 69 1054 46 1173 -50 267 -359 469 -956 626 -140 36
-159 39 -291 39 l-140 0 -22 -68z m-432 -8307 c298 -46 544 -119 802 -234 l47
-22 -40 -117 c-102 -294 -269 -538 -478 -695 -235 -177 -485 -283 -797 -338
-430 -75 -1095 42 -1368 241 -112 82 -203 199 -227 292 -12 42 -10 54 15 130
104 318 431 551 948 678 126 31 330 65 473 80 133 13 501 4 625 -15z"/>
<path d="M15280 12851 c0 -6 4 -13 10 -16 6 -3 7 1 4 9 -7 18 -14 21 -14 7z"/>
<path d="M36112 12805 c-69 -19 -214 -80 -277 -115 -110 -62 -432 -176 -890
-313 -353 -107 -1505 -434 -1780 -507 -425 -112 -807 -190 -930 -190 -137 0
-345 76 -473 172 l-63 48 -130 0 -129 0 -65 -42 -65 -43 0 -125 0 -126 71 -99
c290 -406 571 -656 800 -710 97 -22 336 -20 458 5 315 64 916 293 2091 797
551 237 948 398 957 389 11 -11 -188 -261 -447 -561 -81 -93 -281 -325 -445
-515 -1403 -1628 -2646 -2953 -3775 -4026 -218 -207 -435 -402 -495 -447 -85
-62 -139 -128 -190 -232 -70 -145 -80 -207 -80 -505 0 -243 1 -258 23 -312 27
-68 84 -122 142 -138 26 -7 107 -10 209 -8 165 3 167 3 231 35 109 54 215 148
482 429 678 712 1280 1188 1983 1567 712 384 1442 591 2085 591 623 0 1223
-209 1695 -591 111 -90 316 -295 387 -388 176 -231 292 -480 350 -748 31 -144
31 -359 0 -514 -109 -547 -407 -1009 -941 -1462 -246 -208 -472 -369 -711
-506 -137 -79 -264 -145 -278 -145 -4 0 -23 42 -42 93 -52 139 -189 407 -277
542 -220 333 -519 630 -823 818 -233 143 -519 245 -825 294 -163 26 -713 26
-834 0 -257 -56 -490 -175 -643 -332 -105 -107 -217 -305 -260 -461 -19 -69
-22 -112 -26 -330 -3 -195 0 -270 12 -340 48 -281 205 -547 447 -761 360 -317
755 -484 1319 -559 167 -22 798 -31 1023 -15 592 44 1094 174 1602 416 509
242 1036 641 1412 1068 403 458 633 928 719 1467 22 140 31 648 14 804 -63
585 -356 1104 -871 1541 -442 376 -1043 618 -1739 699 -414 49 -990 49 -1410
1 -380 -44 -795 -139 -1140 -262 l-125 -44 31 33 c17 18 217 233 445 478 1208
1299 2193 2342 2559 2711 121 121 207 198 278 248 125 88 227 182 253 232 16
32 19 60 19 176 0 156 -11 211 -64 319 -87 175 -302 420 -421 479 -58 29 -65
30 -220 32 -116 2 -175 -2 -213 -12z m-2481 -8174 c267 -60 553 -229 804 -477
216 -212 442 -564 559 -869 31 -80 33 -91 18 -96 -53 -19 -271 -34 -492 -33
-262 0 -386 12 -620 60 -574 118 -999 434 -1080 804 -10 47 -9 65 5 120 30
116 77 191 186 294 113 108 211 165 336 195 100 25 177 25 284 2z"/>
<path d="M47405 12103 c-22 -1 -103 -8 -180 -13 -1180 -91 -2487 -589 -3445
-1313 -555 -419 -1029 -938 -1355 -1482 -323 -537 -513 -1077 -565 -1604 -13
-135 -13 -575 1 -699 38 -357 163 -698 361 -992 248 -366 309 -460 408 -625
59 -99 142 -244 183 -322 97 -182 177 -299 283 -412 103 -109 197 -174 313
-215 85 -30 88 -31 291 -31 184 0 213 2 285 23 329 94 733 421 1209 978 528
617 1036 1424 1581 2514 546 1091 826 1752 955 2255 59 230 72 340 68 577 -3
184 -6 208 -27 261 -33 83 -126 217 -220 319 -45 48 -77 89 -72 92 22 14 453
18 616 7 989 -70 1751 -378 2305 -931 461 -461 723 -1025 812 -1750 22 -176
16 -657 -11 -879 -75 -625 -216 -1059 -506 -1556 -435 -744 -944 -1293 -1573
-1695 -781 -498 -1621 -827 -2542 -995 l-175 -32 -3 -191 -2 -192 169 0 c93 0
252 7 353 15 1284 108 2391 507 3313 1194 206 153 366 292 554 475 327 322
540 598 767 992 355 617 552 1201 637 1884 19 154 21 226 21 605 1 400 -1 440
-22 575 -56 352 -147 641 -297 940 -179 357 -383 637 -705 964 -192 195 -299
289 -472 413 -700 503 -1501 780 -2433 843 -134 9 -779 11 -880 3z m-704 -906
c93 -124 169 -325 169 -447 0 -165 -122 -588 -290 -1008 -426 -1067 -1181
-2467 -1776 -3298 -435 -608 -756 -940 -1039 -1074 -126 -60 -161 -66 -237
-41 -150 50 -302 177 -417 351 -102 152 -254 468 -338 699 -44 123 -98 330
-119 456 -45 276 12 719 148 1145 194 610 617 1261 1192 1835 378 377 799 692
1246 933 190 101 559 255 861 356 160 54 509 155 539 155 8 0 36 -28 61 -62z"/>
<path d="M72213 11349 c3 -90 13 -220 21 -289 9 -69 19 -252 22 -408 l7 -283
-1464 4 c-1302 3 -1481 5 -1614 20 -221 26 -346 45 -475 74 -87 20 -151 27
-262 30 l-148 4 0 -125 0 -125 109 -253 109 -253 173 0 c96 0 257 6 359 13
400 27 672 32 1918 32 l1292 0 0 -455 0 -455 -1144 0 -1144 0 -360 260 -361
260 -125 0 -126 0 0 -118 c0 -89 6 -144 25 -226 60 -266 60 -273 60 -1431 0
-1105 -3 -1220 -45 -1510 -28 -197 -42 -407 -44 -650 -1 -245 7 -291 64 -378
25 -36 46 -54 93 -76 113 -53 179 -63 402 -59 185 3 203 5 242 26 67 35 75 61
81 249 l5 163 1188 0 1189 0 0 -475 0 -475 -1502 0 c-887 0 -1579 4 -1688 10
-328 18 -603 53 -830 106 -86 20 -127 24 -220 22 l-115 -3 -3 -120 -2 -120
118 -260 119 -260 149 0 c82 0 237 6 344 13 359 23 965 32 2303 32 l1329 0 -5
-547 c-3 -504 -6 -560 -27 -703 -28 -194 -34 -553 -11 -634 21 -73 89 -139
164 -161 82 -24 478 -17 547 9 74 28 116 61 141 113 l24 48 3 938 3 937 2412
0 c2331 0 2413 1 2453 19 23 10 52 34 65 52 23 32 24 43 27 209 3 206 3 207
-105 292 -93 75 -522 397 -725 546 l-167 122 -129 0 -129 0 -283 -330 -283
-330 -1568 0 -1569 0 0 475 0 475 1230 0 1230 0 0 -141 c0 -160 7 -183 71
-218 54 -30 181 -45 344 -38 116 4 154 10 221 32 104 34 136 54 174 107 62 85
65 112 63 528 -2 206 -7 422 -13 480 -21 220 -30 589 -30 1270 l1 705 120 80
c135 89 278 216 303 269 12 26 16 64 16 162 0 156 -6 171 -123 301 -131 147
-278 269 -483 403 l-108 70 -130 -1 -131 0 -186 -257 -185 -257 -1192 -3
-1192 -2 0 455 0 455 2093 2 c2307 3 2127 -2 2170 67 20 33 22 50 25 216 3
163 1 183 -16 210 -25 40 -622 508 -859 673 -28 20 -43 22 -160 21 l-128 0
-280 -305 -279 -304 -1283 0 -1284 0 3 91 3 91 75 19 c125 32 329 142 367 198
22 32 23 44 23 193 0 185 -8 212 -75 258 -74 51 -319 140 -530 194 -251 63
-414 89 -589 94 l-168 4 5 -163z m47 -3474 l0 -435 -1190 0 -1190 0 0 435 0
435 1190 0 1190 0 0 -435z m3300 0 l0 -435 -1230 0 -1230 0 0 435 0 435 1230
0 1230 0 0 -435z m-3300 -1455 l0 -450 -1190 0 -1190 0 0 450 0 450 1190 0
1190 0 0 -450z m3300 0 l0 -450 -1230 0 -1230 0 0 450 0 450 1230 0 1230 0 0
-450z"/>
<path d="M5157 8607 c3 -4 -1 -7 -8 -6 -40 7 -106 -26 -156 -78 -18 -18 -36
-33 -41 -33 -4 0 -12 -10 -17 -22 -6 -13 -17 -21 -25 -20 -8 2 -12 0 -8 -3 7
-7 -50 -70 -62 -70 -3 0 -23 -20 -45 -45 -22 -25 -44 -48 -50 -52 -5 -4 -6 -8
-1 -8 5 0 3 -7 -4 -15 -6 -8 -8 -20 -4 -26 4 -8 3 -9 -4 -5 -7 4 -12 0 -13
-11 0 -10 -3 -27 -6 -38 -22 -88 -22 -196 0 -232 4 -6 1 -14 -5 -16 -8 -4 -7
-6 4 -6 11 -1 16 -8 13 -21 -2 -11 0 -20 6 -20 5 0 8 -3 7 -7 -3 -14 15 -48
36 -68 12 -11 29 -31 39 -45 10 -14 15 -19 11 -12 -5 11 -2 11 15 0 12 -7 21
-16 21 -20 0 -4 19 -16 43 -26 23 -10 48 -26 56 -35 7 -9 17 -14 22 -11 5 3 8
0 7 -6 -3 -13 83 -80 94 -74 3 2 14 -3 22 -12 9 -8 16 -12 16 -7 0 4 5 1 10
-8 8 -14 17 -15 47 -8 21 5 46 11 55 14 20 4 70 36 80 50 4 5 8 6 8 1 0 -5 9
1 20 14 11 13 20 20 20 15 0 -4 7 -2 14 5 8 6 32 14 53 16 50 6 87 11 93 14 3
1 9 2 13 1 5 -1 7 2 4 6 -5 9 30 44 40 41 4 -2 14 10 21 25 8 17 19 26 27 23
7 -2 16 2 19 10 4 10 2 13 -7 8 -6 -4 -3 4 9 17 20 23 46 79 46 96 0 4 6 12
14 16 8 5 12 12 9 17 -3 4 6 32 19 62 18 40 21 59 14 72 -5 10 -7 20 -4 23 3
3 -1 18 -9 33 -8 15 -11 30 -8 34 4 3 1 6 -6 6 -8 0 -11 6 -7 16 3 8 2 12 -4
9 -10 -6 -13 3 -13 38 0 10 -2 15 -5 13 -6 -7 -32 41 -32 58 0 19 -162 176
-182 176 -10 0 -18 5 -18 10 0 11 -49 35 -63 31 -5 -1 -6 2 -4 6 7 11 -19 33
-29 25 -4 -4 -4 -2 0 5 7 13 -43 53 -66 53 -8 0 -19 5 -26 12 -9 9 -12 9 -12
0 0 -6 -6 -9 -12 -7 -25 9 -97 11 -91 2z"/>
<path d="M11345 8581 c6 -11 4 -13 -10 -8 -9 4 -23 3 -30 -3 -9 -8 -15 -8 -20
0 -3 6 -10 8 -14 6 -4 -3 -25 -7 -47 -9 -53 -6 -105 -29 -130 -58 -22 -26 -72
-69 -78 -69 -3 0 -18 -14 -35 -31 -18 -17 -36 -27 -42 -23 -8 4 -9 3 -5 -4 4
-7 1 -12 -9 -12 -9 0 -13 -4 -10 -10 3 -5 2 -10 -4 -10 -6 0 -17 -12 -25 -27
-8 -16 -15 -24 -16 -20 0 5 -8 1 -17 -9 -10 -10 -16 -18 -14 -18 2 -1 -1 -10
-7 -22 -6 -11 -13 -49 -17 -85 -3 -35 -8 -72 -11 -83 -5 -14 -3 -16 7 -10 11
6 12 5 3 -7 -9 -11 -13 -164 -4 -164 3 0 11 -40 13 -62 0 -13 4 -23 9 -23 4 0
5 -6 2 -13 -3 -8 16 -36 40 -63 25 -27 46 -53 46 -58 0 -4 7 -6 15 -2 8 3 15
1 15 -4 0 -5 10 -14 21 -21 15 -7 19 -8 15 0 -5 7 -1 9 8 5 9 -3 16 -10 16
-15 0 -5 9 -9 21 -9 11 0 17 -5 14 -10 -3 -6 6 -15 20 -20 18 -7 25 -15 21
-26 -3 -8 -2 -13 2 -10 4 2 25 -11 47 -30 22 -19 43 -34 48 -34 4 0 5 -5 1
-12 -4 -7 -3 -8 5 -4 6 4 17 4 24 -2 20 -15 49 -23 41 -11 -4 8 0 8 14 0 12
-7 23 -7 27 -2 3 5 19 12 35 16 17 4 30 10 30 13 0 4 17 18 37 32 20 14 49 38
65 53 15 16 32 26 38 22 5 -3 10 -2 10 4 0 6 7 8 15 5 8 -3 20 -2 27 2 13 8
18 10 51 12 33 3 154 137 149 165 -1 4 2 7 7 7 9 0 24 38 22 54 -1 5 6 18 16
29 10 11 12 17 5 13 -11 -7 -12 -4 -3 13 7 11 16 21 21 21 13 0 7 159 -6 168
-12 8 -32 57 -38 95 -3 15 -14 43 -26 62 -32 52 -177 188 -191 180 -4 -3 -12
2 -19 10 -7 8 -18 15 -24 15 -6 1 -24 18 -41 39 -16 21 -33 37 -38 34 -4 -2
-10 3 -13 11 -4 9 -18 16 -33 16 -15 0 -33 6 -40 13 -11 10 -12 9 -6 -2z"/>
<path d="M9065 6200 c6 -10 4 -12 -8 -7 -10 3 -17 2 -17 -4 0 -6 -5 -7 -12 -3
-7 5 -28 7 -48 6 -19 -1 -46 -2 -60 -3 -14 -1 -30 -5 -37 -11 -7 -6 -14 -5
-18 2 -4 6 -12 7 -24 0 -12 -6 -22 -5 -31 3 -10 9 -11 9 -6 0 9 -16 5 -16 -29
-3 -20 8 -24 7 -18 -3 4 -6 -6 -4 -21 7 -16 10 -25 12 -21 5 6 -9 3 -11 -8 -6
-10 3 -17 2 -17 -4 0 -6 -5 -7 -12 -3 -7 5 -25 7 -40 6 -14 -1 -30 2 -33 8 -4
6 -12 7 -18 3 -7 -5 -39 -9 -72 -11 -111 -4 -135 -7 -135 -15 0 -5 -3 -6 -8
-4 -4 3 -25 -4 -47 -14 -22 -11 -45 -17 -52 -15 -7 3 -12 0 -10 -6 1 -6 -13
-11 -33 -11 -19 0 -41 -5 -49 -11 -12 -9 -13 -8 -6 3 6 11 5 12 -6 5 -8 -4
-18 -9 -24 -10 -5 -1 -29 -9 -52 -17 -22 -9 -44 -13 -47 -10 -3 4 -6 0 -6 -7
0 -11 -3 -11 -12 -2 -7 7 -17 8 -29 1 -10 -5 -22 -8 -26 -7 -4 1 -18 -3 -30
-10 -13 -7 -23 -10 -23 -6 0 3 -6 1 -14 -6 -8 -6 -23 -11 -33 -10 -34 4 -44 0
-37 -12 6 -10 4 -10 -8 0 -12 9 -27 10 -58 3 -23 -5 -49 -7 -58 -4 -11 5 -13
3 -7 -7 6 -10 4 -11 -6 -4 -8 5 -23 9 -34 9 -11 0 -26 5 -34 9 -9 6 -12 5 -7
-2 4 -7 -3 -10 -21 -8 -15 2 -41 -2 -58 -9 -16 -7 -36 -10 -42 -8 -7 3 -13 0
-13 -7 0 -6 -4 -8 -10 -5 -5 3 -10 1 -10 -5 0 -6 -3 -9 -7 -7 -8 4 -42 -27
-45 -40 0 -5 -7 -21 -13 -37 -8 -19 -14 -24 -18 -15 -3 8 -6 -1 -6 -18 -1 -18
-6 -33 -13 -33 -6 0 -8 -3 -5 -7 4 -3 -1 -12 -11 -19 -14 -10 -20 -10 -34 3
-10 9 -18 14 -18 11 0 -3 -17 0 -37 7 -31 11 -41 10 -60 -2 -13 -9 -23 -12
-23 -9 0 4 -6 1 -14 -6 -8 -7 -11 -17 -8 -22 3 -5 0 -6 -5 -3 -6 4 -16 0 -23
-8 -7 -8 -9 -15 -4 -15 4 0 3 -5 -4 -12 -14 -14 -16 -32 -2 -23 5 3 7 0 4 -8
-11 -30 95 -103 111 -77 3 4 16 7 30 6 15 -2 22 1 18 7 -4 6 0 8 9 4 15 -5 58
33 58 51 0 11 40 33 50 27 5 -3 11 -1 15 5 4 6 12 7 18 3 7 -4 17 -8 24 -9 80
-12 93 -13 87 -2 -5 7 -3 8 7 3 7 -5 139 -10 294 -11 154 -1 291 -5 305 -8 14
-4 39 -9 55 -12 56 -9 95 -25 89 -36 -4 -7 -2 -8 4 -4 6 4 20 2 30 -3 28 -15
104 -29 177 -34 22 -1 46 -6 53 -10 6 -5 12 -4 12 1 0 9 46 8 88 -2 14 -3 20
-1 16 6 -4 6 1 8 14 4 23 -8 66 10 58 23 -3 4 1 20 9 35 10 18 10 24 2 19 -7
-4 -5 1 3 11 8 10 15 24 15 30 1 20 29 86 37 86 4 0 7 3 6 8 -4 11 38 62 52
62 6 0 8 5 4 12 -4 6 -3 8 4 5 15 -10 43 3 35 17 -3 6 -3 8 1 4 4 -3 22 -2 39
4 18 5 37 10 42 12 6 1 27 8 48 15 21 7 45 10 53 7 8 -3 12 -1 9 4 -5 9 34 6
71 -5 6 -2 17 1 24 5 8 5 19 6 25 2 22 -14 193 -17 240 -4 22 6 53 10 69 8 16
-2 44 2 63 7 26 8 36 7 50 -5 16 -14 49 -28 78 -34 6 -1 34 -13 62 -27 32 -15
55 -21 59 -15 3 5 16 0 30 -13 13 -12 24 -19 24 -15 0 5 6 3 13 -3 8 -6 17 -8
20 -4 6 6 11 -11 8 -29 0 -4 7 -4 16 -1 11 4 14 3 9 -5 -4 -7 -1 -12 8 -12 9
0 16 -5 16 -11 0 -5 4 -8 9 -4 5 3 12 1 15 -4 4 -5 20 -9 36 -9 16 1 36 -4 44
-11 10 -8 16 -9 21 -1 4 7 12 7 26 0 10 -6 19 -8 19 -5 0 3 9 1 20 -5 15 -8
20 -8 20 1 0 9 3 9 14 0 9 -7 17 -8 20 -3 3 6 20 7 41 2 21 -5 35 -4 35 1 0 6
7 6 18 0 10 -5 38 -10 62 -10 87 -1 120 -16 143 -64 16 -34 81 -85 118 -93 10
-2 28 -6 38 -8 11 -3 29 -9 40 -15 26 -14 40 -14 21 0 -12 9 -11 9 5 4 31 -12
158 -14 171 -3 7 5 16 7 22 6 16 -5 73 42 66 54 -4 6 -3 8 3 5 6 -4 11 4 11
18 0 14 -4 22 -8 20 -5 -3 -6 3 -3 14 5 20 -54 87 -78 88 -8 0 -30 7 -49 15
-20 9 -62 15 -97 14 -34 -1 -60 1 -58 4 2 3 -13 5 -33 4 -21 0 -43 4 -50 9 -7
5 -15 7 -18 4 -11 -10 -83 32 -95 56 -6 12 -21 31 -33 42 -12 11 -15 16 -6 11
13 -9 13 -8 0 6 -20 22 -66 35 -54 17 6 -11 5 -12 -7 -3 -22 18 -55 22 -75 11
-10 -5 -15 -6 -11 -1 15 16 -70 30 -173 28 -115 -2 -131 -4 -143 -19 -5 -6 -7
-4 -4 5 9 29 -11 47 -54 48 -32 2 -50 10 -81 38 -38 34 -41 35 -58 19 -11 -10
-16 -24 -13 -33 5 -14 2 -13 -18 3 -13 11 -27 25 -31 30 -5 6 -8 4 -8 -4 0
-11 -5 -10 -20 4 -11 10 -20 13 -20 7 0 -6 -7 -9 -15 -6 -8 4 -34 -1 -56 -10
-39 -16 -42 -16 -54 0 -7 11 -17 14 -25 9 -8 -5 -11 -4 -7 2 4 6 -4 21 -17 34
-21 21 -35 26 -76 33 -9 1 -22 6 -30 11 -8 5 -68 10 -133 11 -66 2 -126 5
-134 8 -7 3 -12 2 -9 -2 6 -10 -87 -7 -104 3 -9 6 -11 4 -5 -5z"/>
<path d="M10629 6065 c-1 -3 -2 -8 -3 -12 -1 -5 -5 -14 -9 -20 -5 -7 -5 -13
-1 -13 3 0 1 -6 -5 -14 -8 -10 -9 -16 -1 -21 6 -3 8 -10 5 -15 -3 -4 2 -13 11
-20 19 -17 45 3 27 21 -8 8 -7 18 3 37 9 18 10 31 3 44 -9 17 -27 25 -30 13z"/>
<path d="M10665 5930 c-3 -5 -1 -10 4 -10 6 0 11 5 11 10 0 6 -2 10 -4 10 -3
0 -8 -4 -11 -10z"/>
<path d="M11043 5694 c-6 -10 -8 -24 -6 -31 2 -6 0 -14 -6 -17 -6 -4 -7 -14
-4 -23 4 -10 2 -14 -4 -10 -6 4 -15 1 -21 -6 -10 -12 -11 -59 -1 -55 3 2 22
-9 42 -24 19 -16 39 -28 43 -28 4 0 18 -12 31 -26 13 -15 30 -23 38 -20 9 3
26 1 39 -4 16 -6 28 -5 36 3 10 9 11 9 6 0 -9 -16 -4 -16 28 0 14 8 22 18 18
22 -4 5 0 6 9 2 13 -4 16 -1 12 14 -3 10 -1 19 4 19 5 0 10 7 10 15 0 11 -4
12 -13 4 -10 -8 -12 -6 -10 8 2 10 -3 27 -11 38 -16 20 -16 20 -9 0 5 -18 5
-18 -7 -3 -7 9 -22 18 -32 20 -11 1 -35 13 -53 24 -22 15 -44 20 -63 17 -22
-3 -28 -1 -23 10 3 8 -6 27 -19 43 -23 26 -25 27 -34 8z"/>
<path d="M8793 5635 c0 -8 4 -12 9 -9 5 3 6 10 3 15 -9 13 -12 11 -12 -6z"/>
<path d="M8736 5621 c-13 -14 -14 -21 -5 -27 8 -4 10 -3 5 4 -4 7 -2 12 3 12
6 0 11 -7 11 -15 0 -8 10 -24 23 -36 12 -12 15 -18 7 -14 -8 5 -5 -3 8 -17 12
-13 19 -28 15 -33 -5 -4 -3 -5 3 -2 6 4 21 -6 32 -21 23 -29 39 -31 160 -17
37 4 59 2 70 -7 12 -10 14 -10 8 -1 -5 9 -2 11 8 7 9 -3 13 -11 9 -17 -4 -6 2
-8 16 -4 18 4 20 3 11 -8 -8 -10 -8 -14 1 -17 8 -3 11 -20 10 -44 -5 -74 0
-105 19 -122 8 -8 9 -11 3 -7 -9 4 -11 1 -7 -9 3 -9 11 -13 16 -10 6 4 6 -1
-1 -13 -6 -11 -8 -23 -5 -26 17 -16 -67 -30 -92 -15 -10 7 -54 3 -82 -7 -7 -3
-11 -1 -8 3 2 4 -164 8 -370 9 -206 1 -380 5 -386 9 -6 4 -9 3 -5 -2 3 -5 -26
-8 -66 -6 -40 2 -87 3 -104 3 -19 0 -33 5 -33 12 0 7 -3 8 -8 2 -4 -6 -20 -11
-37 -12 -66 -3 -91 -7 -104 -17 -11 -8 -13 -8 -7 2 8 13 -20 10 -70 -9 -12 -4
-25 -5 -28 -2 -3 4 -6 1 -6 -5 0 -7 -9 -12 -21 -12 -11 0 -17 -4 -14 -10 4 -7
-3 -7 -20 0 -17 7 -24 7 -20 0 8 -13 3 -13 -30 0 -14 5 -24 6 -21 1 11 -17
-19 -18 -44 -2 -13 9 -21 11 -17 5 8 -13 -19 -27 -34 -18 -5 3 -9 0 -9 -7 0
-7 -3 -10 -6 -6 -3 3 -17 2 -30 -3 -14 -6 -26 -6 -29 1 -4 5 -12 6 -18 2 -7
-4 -19 -8 -27 -8 -8 0 -21 -4 -29 -9 -10 -7 -12 -6 -6 4 6 10 4 10 -10 3 -20
-11 -52 -6 -74 11 -12 9 -13 8 -7 -3 7 -10 3 -12 -14 -6 -17 6 -21 4 -14 -6 7
-12 5 -12 -9 0 -10 8 -27 11 -42 7 -14 -4 -27 -6 -30 -6 -3 0 -18 -6 -34 -14
-16 -9 -31 -12 -35 -9 -3 4 -6 1 -6 -6 0 -7 -7 -11 -15 -8 -8 4 -17 1 -21 -5
-5 -7 -2 -8 6 -3 9 6 11 4 6 -4 -5 -7 -15 -10 -23 -7 -8 3 -11 2 -8 -3 3 -6
-8 -18 -24 -27 -17 -10 -28 -21 -26 -24 7 -11 -98 -49 -132 -48 -18 1 -39 -4
-47 -11 -21 -18 -69 -19 -82 -2 -9 11 -12 12 -19 1 -6 -9 -4 -11 5 -5 9 5 11
4 6 -4 -4 -6 -12 -9 -17 -5 -29 17 -61 10 -85 -20 -14 -17 -23 -24 -18 -16 4
8 -6 3 -22 -11 -34 -30 -84 -62 -84 -54 0 3 -6 0 -14 -7 -8 -7 -12 -16 -9 -20
2 -4 -4 -5 -14 -1 -10 3 -15 3 -11 -1 8 -10 -23 -47 -34 -40 -4 3 -8 0 -8 -6
0 -6 -5 -8 -12 -4 -23 15 -138 5 -135 -11 1 -5 -5 -8 -13 -7 -8 2 -12 0 -8 -4
9 -8 -40 -55 -92 -89 -45 -29 -169 -153 -161 -161 3 -4 0 -4 -6 0 -8 4 -32
-13 -62 -42 -28 -27 -49 -51 -48 -53 1 -2 -20 -26 -47 -54 -27 -27 -45 -44
-41 -36 5 10 4 12 -4 7 -6 -4 -9 -11 -6 -15 2 -5 -4 -16 -14 -25 -11 -10 -25
-31 -31 -47 -7 -16 -16 -26 -21 -24 -4 3 -7 -2 -5 -12 1 -10 -8 -28 -21 -40
-13 -12 -23 -19 -23 -15 0 4 -8 -5 -18 -21 -10 -15 -22 -24 -27 -20 -4 5 -6 3
-3 -2 4 -6 3 -29 -2 -53 -4 -23 -4 -42 0 -42 5 0 2 -20 -6 -45 -9 -31 -10 -43
-2 -39 7 4 8 3 4 -5 -9 -14 -15 -122 -7 -117 7 5 5 -204 -2 -211 -3 -2 -1 -18
2 -36 4 -18 4 -45 0 -61 -5 -16 -5 -34 -2 -40 11 -18 10 -46 -1 -46 -6 0 -5
-4 3 -9 13 -8 13 -12 0 -27 -8 -10 -9 -15 -3 -11 7 4 15 0 18 -9 4 -10 2 -13
-7 -8 -9 6 -9 5 0 -8 7 -8 11 -17 8 -20 -3 -3 1 -23 9 -46 8 -22 11 -44 8 -48
-4 -4 -2 -4 5 -1 11 7 63 -46 63 -64 0 -6 4 -8 9 -4 5 3 13 0 17 -6 4 -8 3 -9
-4 -5 -17 10 -15 5 13 -48 14 -26 19 -44 13 -40 -7 4 0 -7 15 -23 16 -17 30
-37 31 -44 3 -14 6 -21 29 -84 6 -16 32 -53 58 -81 29 -32 49 -65 53 -87 4
-19 13 -40 21 -47 8 -7 15 -17 15 -22 0 -5 10 -19 21 -31 12 -12 19 -15 15 -7
-5 9 -2 9 7 -2 8 -10 18 -14 22 -10 5 4 5 2 1 -5 -3 -6 2 -16 11 -22 10 -6 15
-11 10 -11 -4 0 6 -14 23 -32 17 -17 28 -33 26 -35 -2 -3 17 -23 42 -46 26
-23 51 -48 55 -55 5 -7 12 -10 17 -7 5 3 7 -3 5 -15 -2 -11 1 -23 7 -26 7 -5
8 -2 3 6 -6 9 -4 11 4 6 7 -5 10 -15 7 -23 -3 -8 -1 -11 4 -8 6 3 10 3 10 -2
0 -4 24 -24 53 -43 58 -38 106 -81 107 -93 0 -9 60 -72 60 -64 0 3 43 -37 96
-89 53 -51 101 -92 108 -91 6 1 10 -5 8 -13 -3 -12 -1 -12 9 -3 9 9 24 0 68
-43 30 -30 61 -54 67 -54 7 0 14 -5 16 -12 2 -6 24 -12 49 -13 24 -1 52 -6 61
-10 9 -4 21 -5 25 -2 4 3 19 0 33 -5 26 -11 141 -17 135 -8 -2 4 5 12 17 19
11 7 18 8 14 3 -11 -18 24 -8 51 15 15 14 21 21 13 17 -13 -7 -13 -5 -1 9 7 9
18 14 24 10 6 -4 8 0 4 9 -3 9 -1 20 5 26 8 8 7 20 -2 41 -6 16 -9 35 -4 42 5
8 3 9 -6 4 -10 -6 -12 -4 -7 9 4 10 3 15 -3 11 -6 -3 -10 -2 -10 3 0 17 -134
146 -154 149 -11 2 -25 9 -31 15 -7 8 -6 9 4 3 10 -6 12 -4 7 4 -6 9 -11 9
-24 -1 -12 -10 -14 -10 -8 -1 4 8 2 13 -7 13 -8 0 -23 12 -33 26 -25 34 -56
64 -66 64 -5 0 -6 5 -2 12 4 6 3 8 -3 5 -5 -4 -20 3 -31 14 -12 11 -22 15 -22
9 0 -6 -13 2 -29 17 -16 15 -35 33 -43 39 -7 7 -28 28 -47 48 -18 20 -36 34
-39 31 -5 -5 -54 38 -90 79 -22 25 -101 103 -140 138 -17 14 -33 24 -37 20 -3
-3 -3 1 1 11 4 11 0 19 -10 23 -9 3 -16 11 -16 16 0 6 -28 36 -62 68 -33 32
-62 67 -63 78 -1 25 -75 131 -104 151 -11 8 -18 18 -15 23 3 4 0 8 -5 8 -6 0
-11 5 -11 11 0 5 4 7 10 4 6 -4 7 2 1 17 -4 13 -6 29 -4 36 3 6 0 12 -6 12 -5
0 -8 9 -6 20 2 11 0 18 -4 16 -4 -3 -22 25 -40 63 -29 63 -123 176 -135 164
-3 -3 -3 6 0 20 2 14 0 29 -6 32 -7 4 -7 12 0 25 7 13 7 21 0 25 -7 4 -7 12 0
25 7 13 6 20 -2 22 -8 3 -13 27 -13 64 0 32 -5 65 -9 73 -7 10 -5 12 4 6 10
-6 12 -1 8 19 -3 14 -1 29 4 32 4 3 6 9 3 13 -2 5 0 22 5 40 6 23 6 30 -3 25
-9 -5 -9 -4 0 6 6 7 9 19 6 26 -3 8 0 14 7 14 6 0 8 5 5 11 -7 10 29 52 37 43
3 -2 13 6 24 18 19 22 19 23 -1 9 -11 -8 -6 -1 11 16 17 17 37 46 44 64 8 19
43 65 79 102 92 96 91 94 86 101 -3 3 -2 4 1 1 4 -2 24 11 46 31 22 20 44 32
51 28 7 -4 9 -4 5 0 -8 10 24 44 36 38 5 -3 6 -1 3 5 -13 20 46 58 93 60 82 3
104 10 119 34 9 13 19 26 24 27 4 2 5 7 3 11 -3 4 0 8 7 9 43 4 70 19 61 34
-4 7 -2 8 4 4 6 -4 20 1 30 11 10 10 25 19 33 21 7 2 17 8 20 14 9 14 108 18
116 5 3 -5 9 -3 14 4 7 12 9 12 9 0 0 -9 12 -5 35 13 19 15 35 25 35 22 0 -3
23 8 50 24 28 17 55 30 60 30 6 0 28 16 50 36 35 32 46 36 105 39 43 2 63 -1
58 -8 -3 -6 -1 -7 6 -3 6 4 9 11 6 16 -3 4 4 10 15 13 11 3 22 2 24 -2 6 -9
68 -7 84 3 7 4 12 3 12 -2 0 -10 45 -10 56 0 3 4 17 3 30 -2 13 -5 24 -6 24
-1 0 5 15 6 33 1 18 -4 42 -4 53 1 12 4 27 3 34 -1 7 -5 23 -4 36 0 16 6 26 5
34 -5 9 -11 17 -12 30 -5 10 6 25 7 33 4 9 -3 25 0 37 6 18 10 21 10 15 -2 -6
-10 -5 -11 6 0 16 14 33 16 24 2 -3 -6 1 -7 9 -4 9 3 13 10 10 15 -3 5 2 6 11
3 8 -4 21 -1 29 5 7 6 16 8 19 5 3 -3 31 8 61 26 31 17 56 29 56 25 0 -3 10
-1 21 6 17 9 23 8 30 -2 5 -8 9 -9 9 -3 0 6 21 10 53 9 28 -1 56 0 61 3 22 13
142 10 163 -4 27 -17 36 -18 28 -1 -4 6 1 3 9 -7 9 -11 16 -16 16 -12 0 4 14
-4 31 -18 17 -14 35 -24 40 -20 5 3 9 0 9 -6 0 -7 7 -9 16 -6 8 3 12 2 9 -4
-7 -11 54 -23 109 -22 79 3 391 4 396 2 16 -6 61 -6 65 1 3 4 20 3 37 -2 17
-5 34 -7 36 -4 3 3 12 -1 20 -8 13 -10 14 -9 7 3 -7 12 -6 13 6 4 8 -6 33 -10
56 -10 22 1 39 -3 35 -8 -3 -5 5 -7 16 -4 12 4 19 2 16 -3 -3 -5 5 -7 18 -5
13 2 29 -2 37 -8 12 -8 13 -8 7 2 -6 10 1 12 32 9 28 -2 53 -14 80 -38 62 -53
114 -89 129 -89 7 0 13 -3 13 -7 0 -5 12 -17 27 -27 14 -11 24 -15 20 -10 -3
6 16 9 49 8 30 -1 54 3 54 7 0 5 12 4 26 -1 14 -6 29 -8 34 -5 4 3 13 -2 20
-10 6 -7 17 -12 25 -9 7 3 16 0 20 -5 3 -6 11 -9 16 -5 6 3 20 -2 31 -13 15
-12 19 -13 14 -3 -4 8 0 6 8 -4 9 -11 16 -17 16 -13 0 4 20 -12 45 -36 24 -24
51 -45 60 -46 8 -1 24 -2 34 -3 11 -1 18 -5 15 -9 -5 -8 27 -22 34 -14 3 3 -1
5 -8 5 -7 0 -11 3 -7 6 3 4 39 -23 79 -60 40 -36 77 -66 83 -66 14 0 75 -65
75 -80 0 -6 5 -8 10 -5 9 6 14 -8 11 -28 -1 -5 3 -6 9 -2 6 4 18 1 27 -7 14
-11 16 -11 8 1 -5 8 7 3 26 -11 19 -15 39 -28 44 -29 17 -5 95 -101 89 -111
-3 -4 -1 -8 5 -8 6 0 8 -6 5 -13 -3 -8 8 -26 23 -42 15 -16 21 -25 13 -21 -8
4 -6 0 4 -8 11 -9 16 -16 12 -16 -5 0 -3 -6 3 -13 6 -8 8 -17 4 -20 -3 -4 -1
-7 5 -7 7 0 12 -9 12 -20 0 -23 31 -90 41 -90 5 0 14 -18 20 -40 7 -21 15 -38
18 -35 4 2 8 -8 9 -21 1 -14 7 -34 13 -46 6 -11 7 -18 2 -15 -5 3 -14 -3 -21
-13 -7 -11 -8 -21 -2 -25 5 -3 6 -13 3 -23 -4 -9 -7 -31 -6 -50 0 -18 -4 -35
-9 -38 -5 -3 -3 -13 4 -22 10 -12 10 -14 1 -8 -9 5 -19 -5 -30 -28 -9 -19 -20
-33 -25 -30 -5 3 -8 2 -7 -3 2 -9 -8 -40 -22 -67 -8 -14 -8 -16 3 -10 10 6 11
5 1 -8 -7 -8 -10 -18 -6 -21 3 -4 1 -7 -6 -7 -6 0 -11 -6 -9 -12 1 -7 -4 -24
-11 -37 -11 -19 -11 -22 1 -15 10 6 9 3 -2 -10 -14 -18 -18 -29 -24 -76 -5
-42 -23 -73 -63 -112 -40 -39 -86 -107 -62 -92 7 4 4 -5 -9 -20 -12 -16 -19
-32 -16 -37 3 -5 1 -9 -5 -9 -13 0 -131 -117 -131 -130 0 -6 -5 -10 -10 -10
-6 0 -39 -28 -73 -62 -34 -35 -65 -62 -69 -60 -4 1 -8 -4 -8 -11 0 -16 -41
-57 -57 -57 -6 0 -16 -7 -23 -15 -7 -8 -17 -12 -23 -8 -6 3 -7 1 -3 -5 4 -7
-2 -16 -17 -21 -13 -5 -43 -32 -66 -59 -30 -36 -48 -50 -62 -47 -11 2 -18 1
-15 -3 2 -4 -8 -16 -23 -27 -26 -19 -26 -19 -12 0 8 11 -5 1 -30 -23 -26 -24
-45 -52 -46 -65 0 -12 -3 -35 -6 -51 -11 -54 11 -113 56 -149 23 -17 37 -25
32 -17 -8 13 -6 13 8 1 9 -7 24 -11 32 -7 9 3 14 2 11 -3 -3 -5 1 -11 9 -15 8
-3 15 -2 15 3 0 4 7 8 15 8 8 0 12 -4 9 -8 -5 -9 58 -5 74 5 6 3 13 2 16 -3 7
-11 25 -9 46 4 8 5 20 10 25 11 6 1 32 23 59 48 27 25 52 43 57 40 5 -3 9 -1
9 4 0 5 23 23 50 40 28 17 50 36 50 42 0 6 4 9 9 6 5 -3 11 0 14 7 2 7 29 26
58 41 30 16 58 35 62 43 5 7 13 10 19 7 6 -4 8 -3 5 4 -8 12 43 58 75 67 13 3
32 10 43 15 11 4 28 11 38 14 11 4 15 11 11 18 -4 7 -4 10 1 6 4 -4 28 11 53
32 25 22 49 40 54 40 5 0 6 5 3 10 -3 6 -2 10 2 10 5 0 18 7 29 16 10 8 12 12
4 8 -8 -4 17 24 55 62 73 73 108 113 89 101 -7 -4 -3 10 7 30 10 20 16 40 12
46 -3 6 -1 7 5 3 6 -3 14 3 17 15 4 11 9 18 12 16 7 -8 73 56 73 71 0 7 4 11
9 8 5 -4 8 5 7 19 -2 13 1 22 5 19 5 -3 9 3 9 13 0 15 2 16 10 3 8 -13 10 -12
10 4 0 10 13 40 29 66 31 51 54 117 45 132 -3 5 -1 7 3 6 13 -4 114 113 110
126 -3 6 3 20 12 30 9 11 10 16 4 12 -9 -5 -11 -2 -7 8 3 9 9 14 13 12 3 -2 7
6 8 17 4 49 13 177 17 260 3 48 8 92 11 97 3 6 0 10 -7 10 -10 0 -10 2 0 9 8
4 13 11 13 15 -4 26 0 56 7 52 4 -3 7 20 6 50 -1 38 2 52 10 47 8 -5 8 -3 -1
8 -18 22 -19 64 -3 85 8 10 10 15 4 11 -7 -4 -14 2 -17 13 -3 13 -1 18 5 13 7
-4 8 -1 3 7 -4 7 -8 27 -7 44 0 17 -5 40 -12 51 -7 11 -12 27 -10 35 2 8 5 25
8 38 3 12 1 22 -4 22 -4 0 -6 9 -3 19 3 11 -2 34 -10 51 -10 19 -11 28 -4 24
7 -3 1 4 -13 16 -14 12 -19 18 -11 14 11 -5 13 -3 8 10 -4 10 -7 20 -7 22 0 3
-6 2 -12 -2 -10 -6 -10 -5 -1 7 10 12 10 18 0 29 -10 10 -9 11 3 5 16 -9 -16
30 -63 78 -15 15 -25 33 -21 39 4 6 3 8 -2 5 -6 -3 -16 3 -23 15 -9 15 -10 18
0 13 9 -6 9 -4 3 6 -5 8 -9 19 -9 24 -1 6 -5 9 -11 8 -5 -1 -11 8 -11 20 -1
12 -12 30 -24 40 -12 9 -19 17 -17 17 3 0 -16 22 -41 48 -45 47 -51 51 -90 54
-11 1 -17 6 -14 12 3 5 -5 7 -20 4 -15 -3 -24 -1 -21 3 3 5 0 9 -6 9 -6 0 -8
5 -4 12 4 6 3 8 -3 5 -6 -4 -24 8 -40 26 -45 47 -66 62 -88 63 -11 1 -33 6
-48 12 -16 7 -32 12 -37 12 -5 0 -14 8 -19 18 -6 9 -11 13 -11 8 0 -6 -7 -1
-16 10 -8 10 -12 12 -8 4 4 -8 -8 -1 -26 15 -18 17 -30 24 -26 18 4 -7 2 -13
-3 -13 -6 0 -11 5 -11 11 0 5 -4 8 -8 5 -5 -3 -14 4 -22 14 -8 10 -17 17 -21
14 -4 -2 -16 7 -27 20 -28 36 -87 67 -101 53 -8 -8 -11 -8 -11 2 0 7 -7 10
-17 7 -10 -3 -31 1 -46 9 -19 9 -25 10 -20 2 5 -9 4 -9 -8 0 -10 8 -42 11 -92
9 -42 -2 -77 0 -77 5 0 4 -9 11 -20 14 -11 4 -18 10 -16 14 5 7 -1 9 -44 13
-11 1 -20 6 -20 11 0 4 -4 6 -9 2 -6 -3 -15 4 -21 15 -6 11 -18 20 -26 20 -17
0 -46 25 -38 33 5 5 -46 21 -58 19 -5 -1 -8 3 -8 9 0 5 -8 9 -17 8 -10 -1 -20
0 -23 1 -15 5 -49 11 -81 13 -21 1 -35 5 -33 8 2 4 -29 6 -70 5 -41 -1 -72 2
-70 6 7 11 -36 30 -52 24 -9 -3 -12 -2 -9 5 4 6 -1 9 -11 7 -12 -2 -18 2 -16
10 1 8 -2 11 -7 8 -5 -3 -14 1 -21 9 -6 7 -17 12 -24 9 -7 -3 -25 9 -40 26
-14 17 -26 28 -26 25 0 -4 -7 -2 -15 5 -8 7 -23 9 -32 6 -15 -5 -14 -3 2 10
20 16 20 16 -4 9 -13 -4 -21 -3 -18 1 3 5 -14 9 -36 8 -23 0 -58 6 -77 15 -32
13 -64 18 -143 20 -16 1 -26 5 -23 10 3 4 -6 7 -19 5 -17 -1 -32 7 -49 26 -13
16 -26 27 -29 24 -3 -3 -8 4 -12 15 -3 12 -11 19 -16 16 -5 -4 -9 1 -9 9 0 9
-5 16 -11 16 -5 0 -7 5 -3 12 5 7 3 8 -5 3 -8 -4 -18 1 -26 12 -12 17 -24 20
-72 17 -144 -8 -193 -7 -206 4 -11 9 -18 8 -31 -7z m34 -11 c6 -11 8 -20 6
-20 -3 0 -10 9 -16 20 -6 11 -8 20 -6 20 3 0 10 -9 16 -20z m379 -113 c8 -10
7 -14 -2 -14 -8 0 -14 6 -14 14 0 7 1 13 2 13 2 0 8 -6 14 -13z m-1924 -3717
c-3 -5 -12 -10 -18 -10 -7 0 -6 4 3 10 19 12 23 12 15 0z"/>
<path d="M9125 5170 c-3 -6 1 -7 9 -4 18 7 21 14 7 14 -6 0 -13 -4 -16 -10z"/>
<path d="M9987 3965 c-53 -13 -124 -75 -111 -96 4 -8 3 -10 -4 -5 -7 4 -12 2
-12 -4 0 -6 -4 -9 -8 -6 -8 5 -9 0 -16 -81 -2 -28 -7 -57 -11 -64 -6 -8 -4
-10 5 -4 9 6 11 4 5 -5 -11 -19 -13 -61 -4 -87 5 -12 4 -25 -1 -28 -5 -3 -6
-15 -3 -28 2 -12 6 -30 7 -40 1 -10 9 -23 17 -28 9 -6 10 -9 2 -9 -9 0 -6 -10
7 -32 10 -17 16 -36 13 -41 -3 -6 -1 -7 5 -3 11 6 16 -6 13 -26 0 -5 4 -8 10
-8 6 0 8 -7 5 -16 -4 -10 -2 -13 6 -8 8 5 9 1 4 -12 -4 -10 -4 -15 0 -11 4 4
29 -14 56 -41 26 -26 51 -46 55 -45 5 0 17 -4 27 -9 27 -14 118 -19 109 -5 -3
5 -1 7 4 4 10 -6 103 39 103 49 0 3 -6 2 -12 -2 -7 -5 1 6 18 23 19 20 30 40
29 55 -1 12 0 27 3 32 3 5 6 25 8 45 1 20 6 61 10 91 12 95 6 166 -17 181 -8
5 -10 9 -5 9 5 0 2 8 -5 17 -12 15 -12 16 1 8 12 -7 13 -6 3 7 -7 8 -10 18 -6
21 3 4 2 7 -4 7 -6 0 -14 7 -17 16 -3 9 -2 12 5 8 6 -3 3 8 -5 25 -9 17 -25
35 -36 41 -11 6 -19 16 -17 23 1 7 -4 11 -12 9 -12 -3 -12 0 -2 12 10 12 9 14
-10 9 -15 -4 -20 -3 -15 5 4 7 1 12 -8 12 -8 0 -22 7 -30 16 -9 8 -16 12 -16
8 0 -3 -7 -1 -15 6 -9 7 -18 10 -22 7 -3 -4 -12 -2 -20 4 -10 9 -13 8 -13 -1
0 -9 -4 -9 -12 -2 -9 6 -28 6 -61 -3z"/>
<path d="M7020 3922 c-8 -3 -28 -16 -43 -29 -16 -13 -34 -20 -40 -16 -7 3 -9
3 -5 -1 3 -4 -5 -24 -18 -43 -13 -20 -24 -42 -24 -49 0 -8 -4 -14 -8 -14 -5 0
-9 -7 -10 -15 -1 -8 -3 -22 -4 -30 -1 -11 -4 -12 -15 -3 -8 6 -13 7 -12 2 4
-22 -2 -35 -13 -28 -7 4 -10 4 -6 0 3 -4 1 -25 -7 -45 -17 -50 -13 -224 7
-271 8 -19 22 -41 31 -49 9 -7 14 -17 11 -22 -3 -5 0 -9 5 -9 6 0 11 -7 11
-16 0 -8 4 -12 10 -9 7 4 7 -2 0 -19 -6 -17 -6 -27 1 -32 5 -3 8 -11 6 -17 -2
-7 8 -24 23 -40 45 -49 120 -38 183 25 16 15 32 26 37 23 5 -3 12 0 16 6 5 8
3 9 -7 4 -8 -5 6 11 31 36 25 24 44 47 42 51 -1 5 3 7 9 6 16 -4 47 53 41 76
-3 11 -1 17 4 13 6 -3 10 10 9 31 0 20 2 41 4 47 3 5 5 26 6 45 1 19 3 40 6
45 5 9 4 32 -1 38 -1 1 -3 14 -4 28 -2 14 -6 35 -11 45 -9 22 -15 52 -16 77 0
11 -5 15 -12 10 -7 -4 -5 2 3 12 12 15 12 17 1 10 -11 -6 -13 -4 -8 8 3 10 2
17 -4 17 -6 0 -8 4 -4 9 6 11 -42 59 -68 67 -9 3 -15 10 -12 15 4 5 -4 10 -17
10 -13 1 -43 2 -68 4 -25 1 -52 0 -60 -3z"/>
</g>
</svg>
